solid
 facet normal  2.498741e-02 -2.724741e-02 -9.993164e-01
   outer loop
     vertex  1.026244e+01 -1.073410e+01  2.282500e+01
     vertex  9.957876e+00 -1.133397e+01  2.283374e+01
     vertex  9.770790e+00 -1.118497e+01  2.282500e+01
   endloop
 endfacet
 facet normal  8.204125e-02 -5.615235e-02 -9.950458e-01
   outer loop
     vertex  1.026244e+01 -1.073410e+01  2.282500e+01
     vertex  1.016107e+01 -1.142967e+01  2.285589e+01
     vertex  9.957876e+00 -1.133397e+01  2.283374e+01
   endloop
 endfacet
 facet normal  1.240598e-01 -6.206693e-02 -9.903317e-01
   outer loop
     vertex  1.034472e+01 -1.147327e+01  2.288163e+01
     vertex  1.016107e+01 -1.142967e+01  2.285589e+01
     vertex  1.026244e+01 -1.073410e+01  2.282500e+01
   endloop
 endfacet
 facet normal  1.460639e-01 -5.939982e-02 -9.874902e-01
   outer loop
     vertex  1.051794e+01 -1.148224e+01  2.290779e+01
     vertex  1.034472e+01 -1.147327e+01  2.288163e+01
     vertex  1.026244e+01 -1.073410e+01  2.282500e+01
   endloop
 endfacet
 facet normal  1.787481e-02 -1.628156e-02 -9.997077e-01
   outer loop
     vertex  1.128476e+01 -9.885407e+00  2.282873e+01
     vertex  1.073335e+01 -1.026160e+01  2.282500e+01
     vertex  1.118256e+01 -9.768426e+00  2.282500e+01
   endloop
 endfacet
 facet normal  4.408663e-02 -5.472391e-02 -9.975278e-01
   outer loop
     vertex  1.137047e+01 -1.002227e+01  2.284003e+01
     vertex  1.073335e+01 -1.026160e+01  2.282500e+01
     vertex  1.128476e+01 -9.885407e+00  2.282873e+01
   endloop
 endfacet
 facet normal  5.941048e-02 -9.576279e-02 -9.936297e-01
   outer loop
     vertex  1.144153e+01 -1.019835e+01  2.286125e+01
     vertex  1.073335e+01 -1.026160e+01  2.282500e+01
     vertex  1.137047e+01 -1.002227e+01  2.284003e+01
   endloop
 endfacet
 facet normal  6.235312e-02 -1.311357e-01 -9.894016e-01
   outer loop
     vertex  1.147910e+01 -1.039625e+01  2.288984e+01
     vertex  1.073335e+01 -1.026160e+01  2.282500e+01
     vertex  1.144153e+01 -1.019835e+01  2.286125e+01
   endloop
 endfacet
 facet normal  1.626203e-01 -1.533107e-01 -9.747053e-01
   outer loop
     vertex  1.085010e+01 -1.084886e+01  2.286359e+01
     vertex  1.068573e+01 -1.146206e+01  2.293261e+01
     vertex  1.051794e+01 -1.148224e+01  2.290779e+01
   endloop
 endfacet
 facet normal  1.746770e-01 -1.562548e-01 -9.721483e-01
   outer loop
     vertex  1.085010e+01 -1.084886e+01  2.286359e+01
     vertex  1.084139e+01 -1.141638e+01  2.295324e+01
     vertex  1.068573e+01 -1.146206e+01  2.293261e+01
   endloop
 endfacet
 facet normal  1.770638e-01 -1.562240e-01 -9.717214e-01
   outer loop
     vertex  1.085010e+01 -1.084886e+01  2.286359e+01
     vertex  1.098132e+01 -1.134977e+01  2.296803e+01
     vertex  1.084139e+01 -1.141638e+01  2.295324e+01
   endloop
 endfacet
 facet normal  1.731395e-01 -1.573612e-01 -9.722449e-01
   outer loop
     vertex  1.085010e+01 -1.084886e+01  2.286359e+01
     vertex  1.109405e+01 -1.127434e+01  2.297590e+01
     vertex  1.098132e+01 -1.134977e+01  2.296803e+01
   endloop
 endfacet
 facet normal  1.671331e-01 -1.609284e-01 -9.727120e-01
   outer loop
     vertex  1.085010e+01 -1.084886e+01  2.286359e+01
     vertex  1.118996e+01 -1.118996e+01  2.297842e+01
     vertex  1.109405e+01 -1.127434e+01  2.297590e+01
   endloop
 endfacet
 facet normal  1.598022e-01 -1.682315e-01 -9.727083e-01
   outer loop
     vertex  1.085010e+01 -1.084886e+01  2.286359e+01
     vertex  1.132679e+01 -1.101930e+01  2.297138e+01
     vertex  1.118996e+01 -1.118996e+01  2.297842e+01
   endloop
 endfacet
 facet normal  1.568027e-01 -1.760536e-01 -9.718117e-01
   outer loop
     vertex  1.085010e+01 -1.084886e+01  2.286359e+01
     vertex  1.142992e+01 -1.080391e+01  2.294900e+01
     vertex  1.132679e+01 -1.101930e+01  2.297138e+01
   endloop
 endfacet
 facet normal  1.565250e-01 -1.705099e-01 -9.728444e-01
   outer loop
     vertex  1.085010e+01 -1.084886e+01  2.286359e+01
     vertex  1.147655e+01 -1.059499e+01  2.291988e+01
     vertex  1.142992e+01 -1.080391e+01  2.294900e+01
   endloop
 endfacet
 facet normal  1.484945e-01 -1.496570e-01 -9.775235e-01
   outer loop
     vertex  1.085010e+01 -1.084886e+01  2.286359e+01
     vertex  1.147910e+01 -1.039625e+01  2.288984e+01
     vertex  1.147655e+01 -1.059499e+01  2.291988e+01
   endloop
 endfacet
 facet normal  5.480190e-02 -5.461738e-02 -9.970024e-01
   outer loop
     vertex  1.085010e+01 -1.084886e+01  2.286359e+01
     vertex  1.026244e+01 -1.073410e+01  2.282500e+01
     vertex  1.073335e+01 -1.026160e+01  2.282500e+01
   endloop
 endfacet
 facet normal  4.693929e-02 -9.402287e-02 -9.944629e-01
   outer loop
     vertex  1.085010e+01 -1.084886e+01  2.286359e+01
     vertex  1.051794e+01 -1.148224e+01  2.290779e+01
     vertex  1.026244e+01 -1.073410e+01  2.282500e+01
   endloop
 endfacet
 facet normal  7.755138e-02 -5.001133e-02 -9.957332e-01
   outer loop
     vertex  1.085010e+01 -1.084886e+01  2.286359e+01
     vertex  1.073335e+01 -1.026160e+01  2.282500e+01
     vertex  1.147910e+01 -1.039625e+01  2.288984e+01
   endloop
 endfacet
 facet normal -5.360600e-02  1.493077e-01 -9.873366e-01
   outer loop
     vertex  1.026244e+01 -1.073410e+01  2.282500e+01
     vertex  9.511406e+00 -1.072009e+01  2.286789e+01
     vertex  9.486579e+00 -1.056905e+01  2.289208e+01
   endloop
 endfacet
 facet normal -5.436298e-02  1.205835e-01 -9.912135e-01
   outer loop
     vertex  1.026244e+01 -1.073410e+01  2.282500e+01
     vertex  9.554797e+00 -1.085529e+01  2.284907e+01
     vertex  9.511406e+00 -1.072009e+01  2.286789e+01
   endloop
 endfacet
 facet normal -4.857979e-02  8.604182e-02 -9.951064e-01
   outer loop
     vertex  1.026244e+01 -1.073410e+01  2.282500e+01
     vertex  9.613717e+00 -1.097742e+01  2.283563e+01
     vertex  9.554797e+00 -1.085529e+01  2.284907e+01
   endloop
 endfacet
 facet normal -3.568553e-02  5.153681e-02 -9.980333e-01
   outer loop
     vertex  1.026244e+01 -1.073410e+01  2.282500e+01
     vertex  9.678306e+00 -1.107674e+01  2.282819e+01
     vertex  9.613717e+00 -1.097742e+01  2.283563e+01
   endloop
 endfacet
 facet normal -1.516337e-02  1.653483e-02 -9.997483e-01
   outer loop
     vertex  1.026244e+01 -1.073410e+01  2.282500e+01
     vertex  9.770790e+00 -1.118497e+01  2.282500e+01
     vertex  9.678306e+00 -1.107674e+01  2.282819e+01
   endloop
 endfacet
 facet normal -1.427814e-01  5.485062e-02 -9.882332e-01
   outer loop
     vertex  1.079285e+01 -9.532120e+00  2.285689e+01
     vertex  1.073335e+01 -1.026160e+01  2.282500e+01
     vertex  1.055645e+01 -9.485569e+00  2.289363e+01
   endloop
 endfacet
 facet normal -8.741614e-02  5.062539e-02 -9.948847e-01
   outer loop
     vertex  1.101280e+01 -9.634827e+00  2.283234e+01
     vertex  1.073335e+01 -1.026160e+01  2.282500e+01
     vertex  1.079285e+01 -9.532120e+00  2.285689e+01
   endloop
 endfacet
 facet normal -2.516748e-02  2.292421e-02 -9.994204e-01
   outer loop
     vertex  1.118256e+01 -9.768426e+00  2.282500e+01
     vertex  1.073335e+01 -1.026160e+01  2.282500e+01
     vertex  1.101280e+01 -9.634827e+00  2.283234e+01
   endloop
 endfacet
 facet normal -5.854794e-02  5.835081e-02 -9.965778e-01
   outer loop
     vertex  1.013268e+01 -1.013386e+01  2.286777e+01
     vertex  1.073335e+01 -1.026160e+01  2.282500e+01
     vertex  1.026244e+01 -1.073410e+01  2.282500e+01
   endloop
 endfacet
 facet normal -1.738519e-01  1.524558e-01 -9.728991e-01
   outer loop
     vertex  1.013268e+01 -1.013386e+01  2.286777e+01
     vertex  1.030456e+01 -9.498882e+00  2.293656e+01
     vertex  1.055645e+01 -9.485569e+00  2.289363e+01
   endloop
 endfacet
 facet normal -1.965631e-01  1.580370e-01 -9.676710e-01
   outer loop
     vertex  1.013268e+01 -1.013386e+01  2.286777e+01
     vertex  1.009054e+01 -9.563034e+00  2.296955e+01
     vertex  1.030456e+01 -9.498882e+00  2.293656e+01
   endloop
 endfacet
 facet normal -1.929946e-01  1.584175e-01 -9.683269e-01
   outer loop
     vertex  1.013268e+01 -1.013386e+01  2.286777e+01
     vertex  9.889986e+00 -9.677545e+00  2.299079e+01
     vertex  1.009054e+01 -9.563034e+00  2.296955e+01
   endloop
 endfacet
 facet normal -1.776592e-01  1.669770e-01 -9.698226e-01
   outer loop
     vertex  1.013268e+01 -1.013386e+01  2.286777e+01
     vertex  9.760242e+00 -9.791609e+00  2.299492e+01
     vertex  9.889986e+00 -9.677545e+00  2.299079e+01
   endloop
 endfacet
 facet normal -1.646325e-01  1.810674e-01 -9.695931e-01
   outer loop
     vertex  1.013268e+01 -1.013386e+01  2.286777e+01
     vertex  9.644778e+00 -9.937312e+00  2.298732e+01
     vertex  9.760242e+00 -9.791609e+00  2.299492e+01
   endloop
 endfacet
 facet normal -1.591167e-01  1.938195e-01 -9.680475e-01
   outer loop
     vertex  1.013268e+01 -1.013386e+01  2.286777e+01
     vertex  9.572499e+00 -1.006904e+01  2.297282e+01
     vertex  9.644778e+00 -9.937312e+00  2.298732e+01
   endloop
 endfacet
 facet normal -1.585363e-01  1.977131e-01 -9.673550e-01
   outer loop
     vertex  1.013268e+01 -1.013386e+01  2.286777e+01
     vertex  9.515800e+00 -1.022830e+01  2.294956e+01
     vertex  9.572499e+00 -1.006904e+01  2.297282e+01
   endloop
 endfacet
 facet normal -1.574224e-01  1.887266e-01 -9.693299e-01
   outer loop
     vertex  1.013268e+01 -1.013386e+01  2.286777e+01
     vertex  9.486310e+00 -1.039984e+01  2.292095e+01
     vertex  9.515800e+00 -1.022830e+01  2.294956e+01
   endloop
 endfacet
 facet normal -1.485657e-01  1.660991e-01 -9.748535e-01
   outer loop
     vertex  1.013268e+01 -1.013386e+01  2.286777e+01
     vertex  9.486579e+00 -1.056905e+01  2.289208e+01
     vertex  9.486310e+00 -1.039984e+01  2.292095e+01
   endloop
 endfacet
 facet normal -7.442285e-02  5.485751e-02 -9.957168e-01
   outer loop
     vertex  1.013268e+01 -1.013386e+01  2.286777e+01
     vertex  1.026244e+01 -1.073410e+01  2.282500e+01
     vertex  9.486579e+00 -1.056905e+01  2.289208e+01
   endloop
 endfacet
 facet normal -5.482172e-02  7.555660e-02 -9.956334e-01
   outer loop
     vertex  1.013268e+01 -1.013386e+01  2.286777e+01
     vertex  1.055645e+01 -9.485569e+00  2.289363e+01
     vertex  1.073335e+01 -1.026160e+01  2.282500e+01
   endloop
 endfacet
 facet normal -2.150003e-02 -2.796173e-02 -9.993778e-01
   outer loop
     vertex -8.802828e+00 -1.199030e+01  2.282500e+01
     vertex -9.437390e+00 -1.178697e+01  2.283296e+01
     vertex -9.331614e+00 -1.158371e+01  2.282500e+01
   endloop
 endfacet
 facet normal -3.987485e-02 -8.545719e-02 -9.955436e-01
   outer loop
     vertex -8.802828e+00 -1.199030e+01  2.282500e+01
     vertex -9.491503e+00 -1.199097e+01  2.285264e+01
     vertex -9.437390e+00 -1.178697e+01  2.283296e+01
   endloop
 endfacet
 facet normal -3.967520e-02 -1.238723e-01 -9.915047e-01
   outer loop
     vertex -9.503271e+00 -1.214423e+01  2.287226e+01
     vertex -9.491503e+00 -1.199097e+01  2.285264e+01
     vertex -8.802828e+00 -1.199030e+01  2.282500e+01
   endloop
 endfacet
 facet normal -3.479431e-02 -1.452470e-01 -9.887834e-01
   outer loop
     vertex -9.489098e+00 -1.231169e+01  2.289636e+01
     vertex -9.503271e+00 -1.214423e+01  2.287226e+01
     vertex -8.802828e+00 -1.199030e+01  2.282500e+01
   endloop
 endfacet
 facet normal -1.126339e-02 -1.774184e-02 -9.997792e-01
   outer loop
     vertex -7.779778e+00 -1.283426e+01  2.282782e+01
     vertex -8.256316e+00 -1.237273e+01  2.282500e+01
     vertex -7.693182e+00 -1.273024e+01  2.282500e+01
   endloop
 endfacet
 facet normal -3.886696e-02 -4.623320e-02 -9.981743e-01
   outer loop
     vertex -7.878263e+00 -1.292455e+01  2.283584e+01
     vertex -8.256316e+00 -1.237273e+01  2.282500e+01
     vertex -7.779778e+00 -1.283426e+01  2.282782e+01
   endloop
 endfacet
 facet normal -6.899968e-02 -6.682234e-02 -9.953762e-01
   outer loop
     vertex -7.998996e+00 -1.300747e+01  2.284977e+01
     vertex -8.256316e+00 -1.237273e+01  2.282500e+01
     vertex -7.878263e+00 -1.292455e+01  2.283584e+01
   endloop
 endfacet
 facet normal -1.032543e-01 -8.055329e-02 -9.913878e-01
   outer loop
     vertex -8.198107e+00 -1.309623e+01  2.287772e+01
     vertex -8.256316e+00 -1.237273e+01  2.282500e+01
     vertex -7.998996e+00 -1.300747e+01  2.284977e+01
   endloop
 endfacet
 facet normal -1.296291e-01 -8.243784e-02 -9.881297e-01
   outer loop
     vertex -8.198107e+00 -1.309623e+01  2.287772e+01
     vertex -8.408938e+00 -1.313947e+01  2.290899e+01
     vertex -8.256316e+00 -1.237273e+01  2.282500e+01
   endloop
 endfacet
 facet normal -1.189362e-01 -1.766646e-01 -9.770587e-01
   outer loop
     vertex -8.807341e+00 -1.257846e+01  2.286161e+01
     vertex -9.443865e+00 -1.248346e+01  2.292191e+01
     vertex -9.489098e+00 -1.231169e+01  2.289636e+01
   endloop
 endfacet
 facet normal -1.209491e-01 -1.921705e-01 -9.738798e-01
   outer loop
     vertex -8.807341e+00 -1.257846e+01  2.286161e+01
     vertex -9.370856e+00 -1.264122e+01  2.294397e+01
     vertex -9.443865e+00 -1.248346e+01  2.292191e+01
   endloop
 endfacet
 facet normal -1.204134e-01 -1.960522e-01 -9.731722e-01
   outer loop
     vertex -8.807341e+00 -1.257846e+01  2.286161e+01
     vertex -9.271902e+00 -1.278362e+01  2.296042e+01
     vertex -9.370856e+00 -1.264122e+01  2.294397e+01
   endloop
 endfacet
 facet normal -1.220204e-01 -1.926446e-01 -9.736524e-01
   outer loop
     vertex -8.807341e+00 -1.257846e+01  2.286161e+01
     vertex -9.179622e+00 -1.288051e+01  2.296802e+01
     vertex -9.271902e+00 -1.278362e+01  2.296042e+01
   endloop
 endfacet
 facet normal -1.263833e-01 -1.874298e-01 -9.741136e-01
   outer loop
     vertex -8.807341e+00 -1.257846e+01  2.286161e+01
     vertex -9.076847e+00 -1.296308e+01  2.297058e+01
     vertex -9.179622e+00 -1.288051e+01  2.296802e+01
   endloop
 endfacet
 facet normal -1.351220e-01 -1.813028e-01 -9.741003e-01
   outer loop
     vertex -8.807341e+00 -1.257846e+01  2.286161e+01
     vertex -8.864761e+00 -1.307630e+01  2.296223e+01
     vertex -9.076847e+00 -1.296308e+01  2.297058e+01
   endloop
 endfacet
 facet normal -1.426380e-01 -1.802585e-01 -9.732221e-01
   outer loop
     vertex -8.807341e+00 -1.257846e+01  2.286161e+01
     vertex -8.632819e+00 -1.313550e+01  2.293920e+01
     vertex -8.864761e+00 -1.307630e+01  2.296223e+01
   endloop
 endfacet
 facet normal -1.346975e-01 -1.779864e-01 -9.747705e-01
   outer loop
     vertex -8.807341e+00 -1.257846e+01  2.286161e+01
     vertex -8.408938e+00 -1.313947e+01  2.290899e+01
     vertex -8.632819e+00 -1.313550e+01  2.293920e+01
   endloop
 endfacet
 facet normal -4.319597e-02 -6.172876e-02 -9.971578e-01
   outer loop
     vertex -8.807341e+00 -1.257846e+01  2.286161e+01
     vertex -8.802828e+00 -1.199030e+01  2.282500e+01
     vertex -8.256316e+00 -1.237273e+01  2.282500e+01
   endloop
 endfacet
 facet normal -7.475326e-02 -6.137172e-02 -9.953117e-01
   outer loop
     vertex -8.807341e+00 -1.257846e+01  2.286161e+01
     vertex -9.489098e+00 -1.231169e+01  2.289636e+01
     vertex -8.802828e+00 -1.199030e+01  2.282500e+01
   endloop
 endfacet
 facet normal -2.742535e-02 -1.034530e-01 -9.942562e-01
   outer loop
     vertex -8.807341e+00 -1.257846e+01  2.286161e+01
     vertex -8.256316e+00 -1.237273e+01  2.282500e+01
     vertex -8.408938e+00 -1.313947e+01  2.290899e+01
   endloop
 endfacet
 facet normal  1.456128e-01  8.017366e-02 -9.860878e-01
   outer loop
     vertex -8.802828e+00 -1.199030e+01  2.282500e+01
     vertex -8.899182e+00 -1.122564e+01  2.287294e+01
     vertex -8.748563e+00 -1.117448e+01  2.289934e+01
   endloop
 endfacet
 facet normal  1.168978e-01  7.681117e-02 -9.901692e-01
   outer loop
     vertex -8.802828e+00 -1.199030e+01  2.282500e+01
     vertex -9.029533e+00 -1.129361e+01  2.285228e+01
     vertex -8.899182e+00 -1.122564e+01  2.287294e+01
   endloop
 endfacet
 facet normal  8.271632e-02  6.585391e-02 -9.943949e-01
   outer loop
     vertex -8.802828e+00 -1.199030e+01  2.282500e+01
     vertex -9.143288e+00 -1.137557e+01  2.283739e+01
     vertex -9.029533e+00 -1.129361e+01  2.285228e+01
   endloop
 endfacet
 facet normal  4.885630e-02  4.716740e-02 -9.976915e-01
   outer loop
     vertex -8.802828e+00 -1.199030e+01  2.282500e+01
     vertex -9.235178e+00 -1.146252e+01  2.282878e+01
     vertex -9.143288e+00 -1.137557e+01  2.283739e+01
   endloop
 endfacet
 facet normal  1.487260e-02  1.934246e-02 -9.997023e-01
   outer loop
     vertex -8.802828e+00 -1.199030e+01  2.282500e+01
     vertex -9.331614e+00 -1.158371e+01  2.282500e+01
     vertex -9.235178e+00 -1.146252e+01  2.282878e+01
   endloop
 endfacet
 facet normal  3.034786e-02  1.511259e-01 -9.880486e-01
   outer loop
     vertex -7.518332e+00 -1.231683e+01  2.285622e+01
     vertex -8.256316e+00 -1.237273e+01  2.282500e+01
     vertex -7.505428e+00 -1.207828e+01  2.289310e+01
   endloop
 endfacet
 facet normal  3.471783e-02  9.712798e-02 -9.946662e-01
   outer loop
     vertex -7.579771e+00 -1.252753e+01  2.283350e+01
     vertex -8.256316e+00 -1.237273e+01  2.282500e+01
     vertex -7.518332e+00 -1.231683e+01  2.285622e+01
   endloop
 endfacet
 facet normal  1.962667e-02  3.091550e-02 -9.993293e-01
   outer loop
     vertex -7.693182e+00 -1.273024e+01  2.282500e+01
     vertex -8.256316e+00 -1.237273e+01  2.282500e+01
     vertex -7.579771e+00 -1.252753e+01  2.283350e+01
   endloop
 endfacet
 facet normal  4.856009e-02  6.939431e-02 -9.964067e-01
   outer loop
     vertex -8.226960e+00 -1.174831e+01  2.286992e+01
     vertex -8.256316e+00 -1.237273e+01  2.282500e+01
     vertex -8.802828e+00 -1.199030e+01  2.282500e+01
   endloop
 endfacet
 facet normal  1.218270e-01  1.980629e-01 -9.725889e-01
   outer loop
     vertex -8.226960e+00 -1.174831e+01  2.286992e+01
     vertex -7.552149e+00 -1.183511e+01  2.293677e+01
     vertex -7.505428e+00 -1.207828e+01  2.289310e+01
   endloop
 endfacet
 facet normal  1.247069e-01  2.253158e-01 -9.662717e-01
   outer loop
     vertex -8.226960e+00 -1.174831e+01  2.286992e+01
     vertex -7.653730e+00 -1.161652e+01  2.297463e+01
     vertex -7.552149e+00 -1.183511e+01  2.293677e+01
   endloop
 endfacet
 facet normal  1.249058e-01  2.245683e-01 -9.664200e-01
   outer loop
     vertex -8.226960e+00 -1.174831e+01  2.286992e+01
     vertex -7.785264e+00 -1.144780e+01  2.299684e+01
     vertex -7.653730e+00 -1.161652e+01  2.297463e+01
   endloop
 endfacet
 facet normal  1.339963e-01  2.119001e-01 -9.680616e-01
   outer loop
     vertex -8.226960e+00 -1.174831e+01  2.286992e+01
     vertex -7.910029e+00 -1.133890e+01  2.300340e+01
     vertex -7.785264e+00 -1.144780e+01  2.299684e+01
   endloop
 endfacet
 facet normal  1.506805e-01  1.990724e-01 -9.683313e-01
   outer loop
     vertex -8.226960e+00 -1.174831e+01  2.286992e+01
     vertex -8.098150e+00 -1.122967e+01  2.299659e+01
     vertex -7.910029e+00 -1.133890e+01  2.300340e+01
   endloop
 endfacet
 facet normal  1.672675e-01  1.945136e-01 -9.665330e-01
   outer loop
     vertex -8.226960e+00 -1.174831e+01  2.286992e+01
     vertex -8.257436e+00 -1.117462e+01  2.298010e+01
     vertex -8.098150e+00 -1.122967e+01  2.299659e+01
   endloop
 endfacet
 facet normal  1.721402e-01  1.946045e-01 -9.656587e-01
   outer loop
     vertex -8.226960e+00 -1.174831e+01  2.286992e+01
     vertex -8.397606e+00 -1.114953e+01  2.296017e+01
     vertex -8.257436e+00 -1.117462e+01  2.298010e+01
   endloop
 endfacet
 facet normal  1.654567e-01  1.929265e-01 -9.671626e-01
   outer loop
     vertex -8.226960e+00 -1.174831e+01  2.286992e+01
     vertex -8.570227e+00 -1.114617e+01  2.293131e+01
     vertex -8.397606e+00 -1.114953e+01  2.296017e+01
   endloop
 endfacet
 facet normal  1.454040e-01  1.820370e-01 -9.724815e-01
   outer loop
     vertex -8.226960e+00 -1.174831e+01  2.286992e+01
     vertex -8.748563e+00 -1.117448e+01  2.289934e+01
     vertex -8.570227e+00 -1.114617e+01  2.293131e+01
   endloop
 endfacet
 facet normal  4.065735e-02  8.799353e-02 -9.952910e-01
   outer loop
     vertex -8.226960e+00 -1.174831e+01  2.286992e+01
     vertex -8.802828e+00 -1.199030e+01  2.282500e+01
     vertex -8.748563e+00 -1.117448e+01  2.289934e+01
   endloop
 endfacet
 facet normal  6.338053e-02  6.864141e-02 -9.956261e-01
   outer loop
     vertex -8.226960e+00 -1.174831e+01  2.286992e+01
     vertex -7.505428e+00 -1.207828e+01  2.289310e+01
     vertex -8.256316e+00 -1.237273e+01  2.282500e+01
   endloop
 endfacet
 facet normal -3.027608e-02  1.587171e-02 -9.994156e-01
   outer loop
     vertex -1.332154e+01  6.580028e+00  2.282500e+01
     vertex -1.322121e+01  7.241974e+00  2.283247e+01
     vertex -1.301180e+01  7.170877e+00  2.282500e+01
   endloop
 endfacet
 facet normal -8.848059e-02  2.465223e-02 -9.957728e-01
   outer loop
     vertex -1.332154e+01  6.580028e+00  2.282500e+01
     vertex -1.341983e+01  7.265185e+00  2.285070e+01
     vertex -1.322121e+01  7.241974e+00  2.283247e+01
   endloop
 endfacet
 facet normal -1.307714e-01  1.841527e-02 -9.912415e-01
   outer loop
     vertex -1.361790e+01  7.248634e+00  2.287652e+01
     vertex -1.341983e+01  7.265185e+00  2.285070e+01
     vertex -1.332154e+01  6.580028e+00  2.282500e+01
   endloop
 endfacet
 facet normal -1.539403e-01  7.899495e-03 -9.880486e-01
   outer loop
     vertex -1.378810e+01  7.201282e+00  2.290266e+01
     vertex -1.361790e+01  7.248634e+00  2.287652e+01
     vertex -1.332154e+01  6.580028e+00  2.282500e+01
   endloop
 endfacet
 facet normal -2.088737e-02  8.658964e-03 -9.997443e-01
   outer loop
     vertex -1.398673e+01  5.430625e+00  2.282826e+01
     vertex -1.360443e+01  5.975864e+00  2.282500e+01
     vertex -1.385991e+01  5.359604e+00  2.282500e+01
   endloop
 endfacet
 facet normal -5.504908e-02  3.262233e-02 -9.979506e-01
   outer loop
     vertex -1.409564e+01  5.513724e+00  2.283699e+01
     vertex -1.360443e+01  5.975864e+00  2.282500e+01
     vertex -1.398673e+01  5.430625e+00  2.282826e+01
   endloop
 endfacet
 facet normal -8.066779e-02  5.993057e-02 -9.949377e-01
   outer loop
     vertex -1.420141e+01  5.621760e+00  2.285207e+01
     vertex -1.360443e+01  5.975864e+00  2.282500e+01
     vertex -1.409564e+01  5.513724e+00  2.283699e+01
   endloop
 endfacet
 facet normal -9.778621e-02  8.907497e-02 -9.912131e-01
   outer loop
     vertex -1.430273e+01  5.766518e+00  2.287508e+01
     vertex -1.360443e+01  5.975864e+00  2.282500e+01
     vertex -1.420141e+01  5.621760e+00  2.285207e+01
   endloop
 endfacet
 facet normal -1.044271e-01  1.119441e-01 -9.882123e-01
   outer loop
     vertex -1.437455e+01  5.920137e+00  2.290007e+01
     vertex -1.360443e+01  5.975864e+00  2.282500e+01
     vertex -1.430273e+01  5.766518e+00  2.287508e+01
   endloop
 endfacet
 facet normal -2.003333e-01  8.830333e-02 -9.757403e-01
   outer loop
     vertex -1.390930e+01  6.486928e+00  2.286289e+01
     vertex -1.393995e+01  7.129055e+00  2.292730e+01
     vertex -1.378810e+01  7.201282e+00  2.290266e+01
   endloop
 endfacet
 facet normal -2.143577e-01  8.734321e-02 -9.728422e-01
   outer loop
     vertex -1.390930e+01  6.486928e+00  2.286289e+01
     vertex -1.407787e+01  7.032139e+00  2.294899e+01
     vertex -1.393995e+01  7.129055e+00  2.292730e+01
   endloop
 endfacet
 facet normal -2.175307e-01  8.626607e-02 -9.722338e-01
   outer loop
     vertex -1.390930e+01  6.486928e+00  2.286289e+01
     vertex -1.420080e+01  6.909599e+00  2.296562e+01
     vertex -1.407787e+01  7.032139e+00  2.294899e+01
   endloop
 endfacet
 facet normal -2.143008e-01  8.861657e-02 -9.727396e-01
   outer loop
     vertex -1.390930e+01  6.486928e+00  2.286289e+01
     vertex -1.427824e+01  6.804432e+00  2.297310e+01
     vertex -1.420080e+01  6.909599e+00  2.296562e+01
   endloop
 endfacet
 facet normal -2.098578e-01  9.394214e-02 -9.732084e-01
   outer loop
     vertex -1.390930e+01  6.486928e+00  2.286289e+01
     vertex -1.434232e+01  6.687934e+00  2.297567e+01
     vertex -1.427824e+01  6.804432e+00  2.297310e+01
   endloop
 endfacet
 facet normal -2.054062e-01  1.035198e-01 -9.731865e-01
   outer loop
     vertex -1.390930e+01  6.486928e+00  2.286289e+01
     vertex -1.441429e+01  6.472752e+00  2.296797e+01
     vertex -1.434232e+01  6.687934e+00  2.297567e+01
   endloop
 endfacet
 facet normal -2.054451e-01  1.115514e-01 -9.722904e-01
   outer loop
     vertex -1.390930e+01  6.486928e+00  2.286289e+01
     vertex -1.443601e+01  6.267421e+00  2.294900e+01
     vertex -1.441429e+01  6.472752e+00  2.296797e+01
   endloop
 endfacet
 facet normal -2.041990e-01  1.083149e-01 -9.729186e-01
   outer loop
     vertex -1.390930e+01  6.486928e+00  2.286289e+01
     vertex -1.441969e+01  6.085359e+00  2.292531e+01
     vertex -1.443601e+01  6.267421e+00  2.294900e+01
   endloop
 endfacet
 facet normal -1.948257e-01  9.590114e-02 -9.761383e-01
   outer loop
     vertex -1.390930e+01  6.486928e+00  2.286289e+01
     vertex -1.437455e+01  5.920137e+00  2.290007e+01
     vertex -1.441969e+01  6.085359e+00  2.292531e+01
   endloop
 endfacet
 facet normal -6.943154e-02  3.251058e-02 -9.970568e-01
   outer loop
     vertex -1.390930e+01  6.486928e+00  2.286289e+01
     vertex -1.332154e+01  6.580028e+00  2.282500e+01
     vertex -1.360443e+01  5.975864e+00  2.282500e+01
   endloop
 endfacet
 facet normal -7.492593e-02  6.809110e-02 -9.948617e-01
   outer loop
     vertex -1.390930e+01  6.486928e+00  2.286289e+01
     vertex -1.378810e+01  7.201282e+00  2.290266e+01
     vertex -1.332154e+01  6.580028e+00  2.282500e+01
   endloop
 endfacet
 facet normal -9.809837e-02  1.526177e-02 -9.950597e-01
   outer loop
     vertex -1.390930e+01  6.486928e+00  2.286289e+01
     vertex -1.360443e+01  5.975864e+00  2.282500e+01
     vertex -1.437455e+01  5.920137e+00  2.290007e+01
   endloop
 endfacet
 facet normal  1.019146e-01 -1.246415e-01 -9.869538e-01
   outer loop
     vertex -1.332154e+01  6.580028e+00  2.282500e+01
     vertex -1.259820e+01  6.811280e+00  2.287049e+01
     vertex -1.253071e+01  6.690082e+00  2.289276e+01
   endloop
 endfacet
 facet normal  9.284156e-02 -9.544693e-02 -9.910955e-01
   outer loop
     vertex -1.332154e+01  6.580028e+00  2.282500e+01
     vertex -1.270351e+01  6.946085e+00  2.284764e+01
     vertex -1.259820e+01  6.811280e+00  2.287049e+01
   endloop
 endfacet
 facet normal  6.948703e-02 -5.571172e-02 -9.960260e-01
   outer loop
     vertex -1.332154e+01  6.580028e+00  2.282500e+01
     vertex -1.283938e+01  7.067827e+00  2.283135e+01
     vertex -1.270351e+01  6.946085e+00  2.284764e+01
   endloop
 endfacet
 facet normal  3.734394e-02 -2.390096e-02 -9.990166e-01
   outer loop
     vertex -1.332154e+01  6.580028e+00  2.282500e+01
     vertex -1.293944e+01  7.133310e+00  2.282605e+01
     vertex -1.283938e+01  7.067827e+00  2.283135e+01
   endloop
 endfacet
 facet normal  1.136453e-02 -5.957658e-03 -9.999177e-01
   outer loop
     vertex -1.332154e+01  6.580028e+00  2.282500e+01
     vertex -1.301180e+01  7.170877e+00  2.282500e+01
     vertex -1.293944e+01  7.133310e+00  2.282605e+01
   endloop
 endfacet
 facet normal  1.609974e-01  1.261911e-03 -9.869540e-01
   outer loop
     vertex -1.333377e+01  5.270557e+00  2.286825e+01
     vertex -1.360443e+01  5.975864e+00  2.282500e+01
     vertex -1.316644e+01  5.302335e+00  2.289559e+01
   endloop
 endfacet
 facet normal  1.310562e-01 -1.049594e-02 -9.913194e-01
   outer loop
     vertex -1.349073e+01  5.266814e+00  2.284754e+01
     vertex -1.360443e+01  5.975864e+00  2.282500e+01
     vertex -1.333377e+01  5.270557e+00  2.286825e+01
   endloop
 endfacet
 facet normal  9.024277e-02 -1.718238e-02 -9.957716e-01
   outer loop
     vertex -1.365008e+01  5.288496e+00  2.283272e+01
     vertex -1.360443e+01  5.975864e+00  2.282500e+01
     vertex -1.349073e+01  5.266814e+00  2.284754e+01
   endloop
 endfacet
 facet normal  3.225781e-02 -1.337264e-02 -9.993901e-01
   outer loop
     vertex -1.385991e+01  5.359604e+00  2.282500e+01
     vertex -1.360443e+01  5.975864e+00  2.282500e+01
     vertex -1.365008e+01  5.288496e+00  2.283272e+01
   endloop
 endfacet
 facet normal  7.514522e-02 -3.518595e-02 -9.965516e-01
   outer loop
     vertex -1.299378e+01  6.059400e+00  2.286810e+01
     vertex -1.360443e+01  5.975864e+00  2.282500e+01
     vertex -1.332154e+01  6.580028e+00  2.282500e+01
   endloop
 endfacet
 facet normal  2.123646e-01 -8.378497e-02 -9.735920e-01
   outer loop
     vertex -1.299378e+01  6.059400e+00  2.286810e+01
     vertex -1.299386e+01  5.368375e+00  2.292755e+01
     vertex -1.316644e+01  5.302335e+00  2.289559e+01
   endloop
 endfacet
 facet normal  2.360834e-01 -8.331993e-02 -9.681541e-01
   outer loop
     vertex -1.299378e+01  6.059400e+00  2.286810e+01
     vertex -1.283236e+01  5.468124e+00  2.295835e+01
     vertex -1.299386e+01  5.368375e+00  2.292755e+01
   endloop
 endfacet
 facet normal  2.411331e-01 -8.177139e-02 -9.670410e-01
   outer loop
     vertex -1.299378e+01  6.059400e+00  2.286810e+01
     vertex -1.267310e+01  5.618777e+00  2.298532e+01
     vertex -1.283236e+01  5.468124e+00  2.295835e+01
   endloop
 endfacet
 facet normal  2.334286e-01 -8.774219e-02 -9.684071e-01
   outer loop
     vertex -1.299378e+01  6.059400e+00  2.286810e+01
     vertex -1.258899e+01  5.733761e+00  2.299517e+01
     vertex -1.267310e+01  5.618777e+00  2.298532e+01
   endloop
 endfacet
 facet normal  2.220452e-01 -1.023764e-01 -9.696468e-01
   outer loop
     vertex -1.299378e+01  6.059400e+00  2.286810e+01
     vertex -1.249376e+01  5.930425e+00  2.299622e+01
     vertex -1.258899e+01  5.733761e+00  2.299517e+01
   endloop
 endfacet
 facet normal  2.166535e-01 -1.222090e-01 -9.685692e-01
   outer loop
     vertex -1.299378e+01  6.059400e+00  2.286810e+01
     vertex -1.244942e+01  6.102127e+00  2.298447e+01
     vertex -1.249376e+01  5.930425e+00  2.299622e+01
   endloop
 endfacet
 facet normal  2.171457e-01 -1.324496e-01 -9.671116e-01
   outer loop
     vertex -1.299378e+01  6.059400e+00  2.286810e+01
     vertex -1.243629e+01  6.241864e+00  2.296828e+01
     vertex -1.244942e+01  6.102127e+00  2.298447e+01
   endloop
 endfacet
 facet normal  2.172328e-01 -1.327490e-01 -9.670510e-01
   outer loop
     vertex -1.299378e+01  6.059400e+00  2.286810e+01
     vertex -1.244408e+01  6.392042e+00  2.294592e+01
     vertex -1.243629e+01  6.241864e+00  2.296828e+01
   endloop
 endfacet
 facet normal  2.117613e-01 -1.231261e-01 -9.695345e-01
   outer loop
     vertex -1.299378e+01  6.059400e+00  2.286810e+01
     vertex -1.247649e+01  6.546930e+00  2.291917e+01
     vertex -1.244408e+01  6.392042e+00  2.294592e+01
   endloop
 endfacet
 facet normal  1.958238e-01 -1.056502e-01 -9.749313e-01
   outer loop
     vertex -1.299378e+01  6.059400e+00  2.286810e+01
     vertex -1.253071e+01  6.690082e+00  2.289276e+01
     vertex -1.247649e+01  6.546930e+00  2.291917e+01
   endloop
 endfacet
 facet normal  8.899070e-02 -2.639765e-02 -9.956826e-01
   outer loop
     vertex -1.299378e+01  6.059400e+00  2.286810e+01
     vertex -1.332154e+01  6.580028e+00  2.282500e+01
     vertex -1.253071e+01  6.690082e+00  2.289276e+01
   endloop
 endfacet
 facet normal  7.762643e-02 -5.385243e-02 -9.955270e-01
   outer loop
     vertex -1.299378e+01  6.059400e+00  2.286810e+01
     vertex -1.316644e+01  5.302335e+00  2.289559e+01
     vertex -1.360443e+01  5.975864e+00  2.282500e+01
   endloop
 endfacet
endsolid
