solid solid
 facet normal 0.024984 -0.0272438 -0.999317
  outer loop
   vertex 0.0102624 -0.0107341 0.022825
   vertex 0.00995788 -0.011334 0.0228337
   vertex 0.00977079 -0.011185 0.022825
  endloop
 endfacet
 facet normal 0.0820272 -0.0561433 -0.995047
  outer loop
   vertex 0.0102624 -0.0107341 0.022825
   vertex 0.0101611 -0.0114297 0.0228559
   vertex 0.00995788 -0.011334 0.0228337
  endloop
 endfacet
 facet normal 0.124067 -0.0620606 -0.990331
  outer loop
   vertex 0.0103447 -0.0114733 0.0228816
   vertex 0.0101611 -0.0114297 0.0228559
   vertex 0.0102624 -0.0107341 0.022825
  endloop
 endfacet
 facet normal 0.146054 -0.0593957 -0.987492
  outer loop
   vertex 0.0105179 -0.0114822 0.0229078
   vertex 0.0103447 -0.0114733 0.0228816
   vertex 0.0102624 -0.0107341 0.022825
  endloop
 endfacet
 facet normal 0.0178573 -0.0162654 -0.999708
  outer loop
   vertex 0.0112848 -0.00988541 0.0228287
   vertex 0.0107333 -0.0102616 0.022825
   vertex 0.0111826 -0.00976843 0.022825
  endloop
 endfacet
 facet normal 0.0440988 -0.0547511 -0.997526
  outer loop
   vertex 0.0113705 -0.0100223 0.02284
   vertex 0.0107333 -0.0102616 0.022825
   vertex 0.0112848 -0.00988541 0.0228287
  endloop
 endfacet
 facet normal 0.0594132 -0.0957643 -0.993629
  outer loop
   vertex 0.0114415 -0.0101983 0.0228612
   vertex 0.0107333 -0.0102616 0.022825
   vertex 0.0113705 -0.0100223 0.02284
  endloop
 endfacet
 facet normal 0.0623526 -0.131096 -0.989407
  outer loop
   vertex 0.0114791 -0.0103962 0.0228898
   vertex 0.0107333 -0.0102616 0.022825
   vertex 0.0114415 -0.0101983 0.0228612
  endloop
 endfacet
 facet normal 0.16262 -0.1533 -0.974707
  outer loop
   vertex 0.0108501 -0.0108489 0.0228636
   vertex 0.0106857 -0.0114621 0.0229326
   vertex 0.0105179 -0.0114822 0.0229078
  endloop
 endfacet
 facet normal 0.174693 -0.156248 -0.972147
  outer loop
   vertex 0.0108501 -0.0108489 0.0228636
   vertex 0.0108414 -0.0114164 0.0229532
   vertex 0.0106857 -0.0114621 0.0229326
  endloop
 endfacet
 facet normal 0.177079 -0.156217 -0.97172
  outer loop
   vertex 0.0108501 -0.0108489 0.0228636
   vertex 0.0109813 -0.0113498 0.022968
   vertex 0.0108414 -0.0114164 0.0229532
  endloop
 endfacet
 facet normal 0.17316 -0.157353 -0.972243
  outer loop
   vertex 0.0108501 -0.0108489 0.0228636
   vertex 0.0110941 -0.0112743 0.0229759
   vertex 0.0109813 -0.0113498 0.022968
  endloop
 endfacet
 facet normal 0.167138 -0.160929 -0.972711
  outer loop
   vertex 0.0108501 -0.0108489 0.0228636
   vertex 0.01119 -0.01119 0.0229784
   vertex 0.0110941 -0.0112743 0.0229759
  endloop
 endfacet
 facet normal 0.159794 -0.168245 -0.972707
  outer loop
   vertex 0.0108501 -0.0108489 0.0228636
   vertex 0.0113268 -0.0110193 0.0229714
   vertex 0.01119 -0.01119 0.0229784
  endloop
 endfacet
 facet normal 0.156799 -0.176056 -0.971812
  outer loop
   vertex 0.0108501 -0.0108489 0.0228636
   vertex 0.0114299 -0.0108039 0.022949
   vertex 0.0113268 -0.0110193 0.0229714
  endloop
 endfacet
 facet normal 0.156522 -0.17053 -0.972841
  outer loop
   vertex 0.0108501 -0.0108489 0.0228636
   vertex 0.0114766 -0.010595 0.0229199
   vertex 0.0114299 -0.0108039 0.022949
  endloop
 endfacet
 facet normal 0.148487 -0.149664 -0.977524
  outer loop
   vertex 0.0108501 -0.0108489 0.0228636
   vertex 0.0114791 -0.0103962 0.0228898
   vertex 0.0114766 -0.010595 0.0229199
  endloop
 endfacet
 facet normal 0.0548034 -0.0546189 -0.997002
  outer loop
   vertex 0.0108501 -0.0108489 0.0228636
   vertex 0.0102624 -0.0107341 0.022825
   vertex 0.0107333 -0.0102616 0.022825
  endloop
 endfacet
 facet normal 0.0469434 -0.0940147 -0.994463
  outer loop
   vertex 0.0108501 -0.0108489 0.0228636
   vertex 0.0105179 -0.0114822 0.0229078
   vertex 0.0102624 -0.0107341 0.022825
  endloop
 endfacet
 facet normal 0.0775424 -0.0500149 -0.995734
  outer loop
   vertex 0.0108501 -0.0108489 0.0228636
   vertex 0.0107333 -0.0102616 0.022825
   vertex 0.0114791 -0.0103962 0.0228898
  endloop
 endfacet
 facet normal -0.0535973 0.149324 -0.987335
  outer loop
   vertex 0.0102624 -0.0107341 0.022825
   vertex 0.00951141 -0.0107201 0.0228679
   vertex 0.00948658 -0.010569 0.0228921
  endloop
 endfacet
 facet normal -0.0543563 0.120532 -0.99122
  outer loop
   vertex 0.0102624 -0.0107341 0.022825
   vertex 0.0095548 -0.0108553 0.0228491
   vertex 0.00951141 -0.0107201 0.0228679
  endloop
 endfacet
 facet normal -0.0485851 0.0860624 -0.995104
  outer loop
   vertex 0.0102624 -0.0107341 0.022825
   vertex 0.00961372 -0.0109774 0.0228356
   vertex 0.0095548 -0.0108553 0.0228491
  endloop
 endfacet
 facet normal -0.0356911 0.0515573 -0.998032
  outer loop
   vertex 0.0102624 -0.0107341 0.022825
   vertex 0.00967831 -0.0110767 0.0228282
   vertex 0.00961372 -0.0109774 0.0228356
  endloop
 endfacet
 facet normal -0.015146 0.0165159 -0.999749
  outer loop
   vertex 0.0102624 -0.0107341 0.022825
   vertex 0.00977079 -0.011185 0.022825
   vertex 0.00967831 -0.0110767 0.0228282
  endloop
 endfacet
 facet normal -0.142783 0.0548463 -0.988233
  outer loop
   vertex 0.0107928 -0.00953212 0.0228569
   vertex 0.0107333 -0.0102616 0.022825
   vertex 0.0105564 -0.00948557 0.0228936
  endloop
 endfacet
 facet normal -0.0874054 0.0506203 -0.994886
  outer loop
   vertex 0.0110128 -0.00963483 0.0228323
   vertex 0.0107333 -0.0102616 0.022825
   vertex 0.0107928 -0.00953212 0.0228569
  endloop
 endfacet
 facet normal -0.0251681 0.0229245 -0.99942
  outer loop
   vertex 0.0111826 -0.00976843 0.022825
   vertex 0.0107333 -0.0102616 0.022825
   vertex 0.0110128 -0.00963483 0.0228323
  endloop
 endfacet
 facet normal -0.0585485 0.0583514 -0.996578
  outer loop
   vertex 0.0101327 -0.0101339 0.0228678
   vertex 0.0107333 -0.0102616 0.022825
   vertex 0.0102624 -0.0107341 0.022825
  endloop
 endfacet
 facet normal -0.173872 0.152464 -0.972894
  outer loop
   vertex 0.0101327 -0.0101339 0.0228678
   vertex 0.0103046 -0.00949888 0.0229366
   vertex 0.0105564 -0.00948557 0.0228936
  endloop
 endfacet
 facet normal -0.19653 0.158032 -0.967679
  outer loop
   vertex 0.0101327 -0.0101339 0.0228678
   vertex 0.0100905 -0.00956303 0.0229695
   vertex 0.0103046 -0.00949888 0.0229366
  endloop
 endfacet
 facet normal -0.193 0.158408 -0.968327
  outer loop
   vertex 0.0101327 -0.0101339 0.0228678
   vertex 0.00988999 -0.00967754 0.0229908
   vertex 0.0100905 -0.00956303 0.0229695
  endloop
 endfacet
 facet normal -0.177669 0.166965 -0.969823
  outer loop
   vertex 0.0101327 -0.0101339 0.0228678
   vertex 0.00976024 -0.00979161 0.0229949
   vertex 0.00988999 -0.00967754 0.0229908
  endloop
 endfacet
 facet normal -0.164644 0.181054 -0.969594
  outer loop
   vertex 0.0101327 -0.0101339 0.0228678
   vertex 0.00964478 -0.00993731 0.0229873
   vertex 0.00976024 -0.00979161 0.0229949
  endloop
 endfacet
 facet normal -0.159106 0.193856 -0.968042
  outer loop
   vertex 0.0101327 -0.0101339 0.0228678
   vertex 0.0095725 -0.010069 0.0229728
   vertex 0.00964478 -0.00993731 0.0229873
  endloop
 endfacet
 facet normal -0.15853 0.197722 -0.967354
  outer loop
   vertex 0.0101327 -0.0101339 0.0228678
   vertex 0.0095158 -0.0102283 0.0229496
   vertex 0.0095725 -0.010069 0.0229728
  endloop
 endfacet
 facet normal -0.157415 0.188731 -0.96933
  outer loop
   vertex 0.0101327 -0.0101339 0.0228678
   vertex 0.00948631 -0.0103998 0.0229209
   vertex 0.0095158 -0.0102283 0.0229496
  endloop
 endfacet
 facet normal -0.148553 0.166089 -0.974857
  outer loop
   vertex 0.0101327 -0.0101339 0.0228678
   vertex 0.00948658 -0.010569 0.0228921
   vertex 0.00948631 -0.0103998 0.0229209
  endloop
 endfacet
 facet normal -0.0744176 0.0548595 -0.995717
  outer loop
   vertex 0.0101327 -0.0101339 0.0228678
   vertex 0.0102624 -0.0107341 0.022825
   vertex 0.00948658 -0.010569 0.0228921
  endloop
 endfacet
 facet normal -0.0548234 0.0755517 -0.995634
  outer loop
   vertex 0.0101327 -0.0101339 0.0228678
   vertex 0.0105564 -0.00948557 0.0228936
   vertex 0.0107333 -0.0102616 0.022825
  endloop
 endfacet
 facet normal -0.0214912 -0.0279501 -0.999378
  outer loop
   vertex -0.00880283 -0.0119903 0.022825
   vertex -0.00943739 -0.011787 0.022833
   vertex -0.00933161 -0.0115837 0.022825
  endloop
 endfacet
 facet normal -0.0398722 -0.0854646 -0.995543
  outer loop
   vertex -0.00880283 -0.0119903 0.022825
   vertex -0.0094915 -0.011991 0.0228526
   vertex -0.00943739 -0.011787 0.022833
  endloop
 endfacet
 facet normal -0.0396728 -0.123877 -0.991504
  outer loop
   vertex -0.00950327 -0.0121442 0.0228723
   vertex -0.0094915 -0.011991 0.0228526
   vertex -0.00880283 -0.0119903 0.022825
  endloop
 endfacet
 facet normal -0.0347917 -0.145252 -0.988783
  outer loop
   vertex -0.0094891 -0.0123117 0.0228964
   vertex -0.00950327 -0.0121442 0.0228723
   vertex -0.00880283 -0.0119903 0.022825
  endloop
 endfacet
 facet normal -0.0112538 -0.0177265 -0.99978
  outer loop
   vertex -0.00777978 -0.0128343 0.0228278
   vertex -0.00825632 -0.0123727 0.022825
   vertex -0.00769318 -0.0127302 0.022825
  endloop
 endfacet
 facet normal -0.0388879 -0.0462495 -0.998173
  outer loop
   vertex -0.00787826 -0.0129246 0.0228358
   vertex -0.00825632 -0.0123727 0.022825
   vertex -0.00777978 -0.0128343 0.0228278
  endloop
 endfacet
 facet normal -0.0689626 -0.0667989 -0.99538
  outer loop
   vertex -0.007999 -0.0130075 0.0228498
   vertex -0.00825632 -0.0123727 0.022825
   vertex -0.00787826 -0.0129246 0.0228358
  endloop
 endfacet
 facet normal -0.10326 -0.0805471 -0.991388
  outer loop
   vertex -0.00819811 -0.0130962 0.0228777
   vertex -0.00825632 -0.0123727 0.022825
   vertex -0.007999 -0.0130075 0.0228498
  endloop
 endfacet
 facet normal -0.129654 -0.0824331 -0.988127
  outer loop
   vertex -0.00819811 -0.0130962 0.0228777
   vertex -0.00840894 -0.0131395 0.022909
   vertex -0.00825632 -0.0123727 0.022825
  endloop
 endfacet
 facet normal -0.118922 -0.176644 -0.977064
  outer loop
   vertex -0.00880734 -0.0125785 0.0228616
   vertex -0.00944386 -0.0124835 0.0229219
   vertex -0.0094891 -0.0123117 0.0228964
  endloop
 endfacet
 facet normal -0.120936 -0.192151 -0.973885
  outer loop
   vertex -0.00880734 -0.0125785 0.0228616
   vertex -0.00937086 -0.0126412 0.022944
   vertex -0.00944386 -0.0124835 0.0229219
  endloop
 endfacet
 facet normal -0.120392 -0.196087 -0.973168
  outer loop
   vertex -0.00880734 -0.0125785 0.0228616
   vertex -0.0092719 -0.0127836 0.0229604
   vertex -0.00937086 -0.0126412 0.022944
  endloop
 endfacet
 facet normal -0.122039 -0.192595 -0.97366
  outer loop
   vertex -0.00880734 -0.0125785 0.0228616
   vertex -0.00917962 -0.0128805 0.022968
   vertex -0.0092719 -0.0127836 0.0229604
  endloop
 endfacet
 facet normal -0.126341 -0.187453 -0.974115
  outer loop
   vertex -0.00880734 -0.0125785 0.0228616
   vertex -0.00907685 -0.0129631 0.0229706
   vertex -0.00917962 -0.0128805 0.022968
  endloop
 endfacet
 facet normal -0.135126 -0.181294 -0.974101
  outer loop
   vertex -0.00880734 -0.0125785 0.0228616
   vertex -0.00886476 -0.0130763 0.0229622
   vertex -0.00907685 -0.0129631 0.0229706
  endloop
 endfacet
 facet normal -0.142645 -0.180249 -0.973223
  outer loop
   vertex -0.00880734 -0.0125785 0.0228616
   vertex -0.00863282 -0.0131355 0.0229392
   vertex -0.00886476 -0.0130763 0.0229622
  endloop
 endfacet
 facet normal -0.134684 -0.177971 -0.974775
  outer loop
   vertex -0.00880734 -0.0125785 0.0228616
   vertex -0.00840894 -0.0131395 0.022909
   vertex -0.00863282 -0.0131355 0.0229392
  endloop
 endfacet
 facet normal -0.0432007 -0.061736 -0.997157
  outer loop
   vertex -0.00880734 -0.0125785 0.0228616
   vertex -0.00880283 -0.0119903 0.022825
   vertex -0.00825632 -0.0123727 0.022825
  endloop
 endfacet
 facet normal -0.0747497 -0.0613791 -0.995312
  outer loop
   vertex -0.00880734 -0.0125785 0.0228616
   vertex -0.0094891 -0.0123117 0.0228964
   vertex -0.00880283 -0.0119903 0.022825
  endloop
 endfacet
 facet normal -0.027433 -0.103452 -0.994256
  outer loop
   vertex -0.00880734 -0.0125785 0.0228616
   vertex -0.00825632 -0.0123727 0.022825
   vertex -0.00840894 -0.0131395 0.022909
  endloop
 endfacet
 facet normal 0.145605 0.0801691 -0.986089
  outer loop
   vertex -0.00880283 -0.0119903 0.022825
   vertex -0.00889918 -0.0112256 0.0228729
   vertex -0.00874856 -0.0111745 0.0228993
  endloop
 endfacet
 facet normal 0.116891 0.0768067 -0.99017
  outer loop
   vertex -0.00880283 -0.0119903 0.022825
   vertex -0.00902953 -0.0112936 0.0228523
   vertex -0.00889918 -0.0112256 0.0228729
  endloop
 endfacet
 facet normal 0.0827073 0.0658488 -0.994396
  outer loop
   vertex -0.00880283 -0.0119903 0.022825
   vertex -0.00914329 -0.0113756 0.0228374
   vertex -0.00902953 -0.0112936 0.0228523
  endloop
 endfacet
 facet normal 0.0488649 0.0471721 -0.997691
  outer loop
   vertex -0.00880283 -0.0119903 0.022825
   vertex -0.00923518 -0.0114625 0.0228288
   vertex -0.00914329 -0.0113756 0.0228374
  endloop
 endfacet
 facet normal 0.0148686 0.0193372 -0.999702
  outer loop
   vertex -0.00880283 -0.0119903 0.022825
   vertex -0.00933161 -0.0115837 0.022825
   vertex -0.00923518 -0.0114625 0.0228288
  endloop
 endfacet
 facet normal 0.0303517 0.151114 -0.98805
  outer loop
   vertex -0.00751833 -0.0123168 0.0228562
   vertex -0.00825632 -0.0123727 0.022825
   vertex -0.00750543 -0.0120783 0.0228931
  endloop
 endfacet
 facet normal 0.0347205 0.0971331 -0.994666
  outer loop
   vertex -0.00757977 -0.0125275 0.0228335
   vertex -0.00825632 -0.0123727 0.022825
   vertex -0.00751833 -0.0123168 0.0228562
  endloop
 endfacet
 facet normal 0.0196284 0.0309179 -0.999329
  outer loop
   vertex -0.00769318 -0.0127302 0.022825
   vertex -0.00825632 -0.0123727 0.022825
   vertex -0.00757977 -0.0125275 0.0228335
  endloop
 endfacet
 facet normal 0.0485617 0.0693971 -0.996406
  outer loop
   vertex -0.00822696 -0.0117483 0.0228699
   vertex -0.00825632 -0.0123727 0.022825
   vertex -0.00880283 -0.0119903 0.022825
  endloop
 endfacet
 facet normal 0.121824 0.198064 -0.972589
  outer loop
   vertex -0.00822696 -0.0117483 0.0228699
   vertex -0.00755215 -0.0118351 0.0229368
   vertex -0.00750543 -0.0120783 0.0228931
  endloop
 endfacet
 facet normal 0.124703 0.225314 -0.966272
  outer loop
   vertex -0.00822696 -0.0117483 0.0228699
   vertex -0.00765373 -0.0116165 0.0229746
   vertex -0.00755215 -0.0118351 0.0229368
  endloop
 endfacet
 facet normal 0.124898 0.224583 -0.966418
  outer loop
   vertex -0.00822696 -0.0117483 0.0228699
   vertex -0.00778526 -0.0114478 0.0229968
   vertex -0.00765373 -0.0116165 0.0229746
  endloop
 endfacet
 facet normal 0.13402 0.211871 -0.968065
  outer loop
   vertex -0.00822696 -0.0117483 0.0228699
   vertex -0.00791003 -0.0113389 0.0230034
   vertex -0.00778526 -0.0114478 0.0229968
  endloop
 endfacet
 facet normal 0.150654 0.199082 -0.968333
  outer loop
   vertex -0.00822696 -0.0117483 0.0228699
   vertex -0.00809815 -0.0112297 0.0229966
   vertex -0.00791003 -0.0113389 0.0230034
  endloop
 endfacet
 facet normal 0.167279 0.194513 -0.966531
  outer loop
   vertex -0.00822696 -0.0117483 0.0228699
   vertex -0.00825744 -0.0111746 0.0229801
   vertex -0.00809815 -0.0112297 0.0229966
  endloop
 endfacet
 facet normal 0.172133 0.194604 -0.96566
  outer loop
   vertex -0.00822696 -0.0117483 0.0228699
   vertex -0.00839761 -0.0111495 0.0229602
   vertex -0.00825744 -0.0111746 0.0229801
  endloop
 endfacet
 facet normal 0.165454 0.192927 -0.967163
  outer loop
   vertex -0.00822696 -0.0117483 0.0228699
   vertex -0.00857023 -0.0111462 0.0229313
   vertex -0.00839761 -0.0111495 0.0229602
  endloop
 endfacet
 facet normal 0.145437 0.182057 -0.972473
  outer loop
   vertex -0.00822696 -0.0117483 0.0228699
   vertex -0.00874856 -0.0111745 0.0228993
   vertex -0.00857023 -0.0111462 0.0229313
  endloop
 endfacet
 facet normal 0.0406625 0.087988 -0.995291
  outer loop
   vertex -0.00822696 -0.0117483 0.0228699
   vertex -0.00880283 -0.0119903 0.022825
   vertex -0.00874856 -0.0111745 0.0228993
  endloop
 endfacet
 facet normal 0.063378 0.0686444 -0.995626
  outer loop
   vertex -0.00822696 -0.0117483 0.0228699
   vertex -0.00750543 -0.0120783 0.0228931
   vertex -0.00825632 -0.0123727 0.022825
  endloop
 endfacet
 facet normal -0.030261 0.0158637 -0.999416
  outer loop
   vertex -0.0133215 0.00658003 0.022825
   vertex -0.0132212 0.00724197 0.0228325
   vertex -0.0130118 0.00717088 0.022825
  endloop
 endfacet
 facet normal -0.088516 0.0246522 -0.99577
  outer loop
   vertex -0.0133215 0.00658003 0.022825
   vertex -0.0134198 0.00726518 0.0228507
   vertex -0.0132212 0.00724197 0.0228325
  endloop
 endfacet
 facet normal -0.130755 0.0184229 -0.991244
  outer loop
   vertex -0.0136179 0.00724863 0.0228765
   vertex -0.0134198 0.00726518 0.0228507
   vertex -0.0133215 0.00658003 0.022825
  endloop
 endfacet
 facet normal -0.153946 0.00789714 -0.988048
  outer loop
   vertex -0.0137881 0.00720128 0.0229027
   vertex -0.0136179 0.00724863 0.0228765
   vertex -0.0133215 0.00658003 0.022825
  endloop
 endfacet
 facet normal -0.0208548 0.00864568 -0.999745
  outer loop
   vertex -0.0139867 0.00543062 0.0228283
   vertex -0.0136044 0.00597586 0.022825
   vertex -0.0138599 0.0053596 0.022825
  endloop
 endfacet
 facet normal -0.0550784 0.0326526 -0.997948
  outer loop
   vertex -0.0140956 0.00551372 0.022837
   vertex -0.0136044 0.00597586 0.022825
   vertex -0.0139867 0.00543062 0.0228283
  endloop
 endfacet
 facet normal -0.0806514 0.0599123 -0.99494
  outer loop
   vertex -0.0142014 0.00562176 0.0228521
   vertex -0.0136044 0.00597586 0.022825
   vertex -0.0140956 0.00551372 0.022837
  endloop
 endfacet
 facet normal -0.0977995 0.0891072 -0.991209
  outer loop
   vertex -0.0143027 0.00576652 0.0228751
   vertex -0.0136044 0.00597586 0.022825
   vertex -0.0142014 0.00562176 0.0228521
  endloop
 endfacet
 facet normal -0.104428 0.111936 -0.988213
  outer loop
   vertex -0.0143745 0.00592014 0.0229001
   vertex -0.0136044 0.00597586 0.022825
   vertex -0.0143027 0.00576652 0.0228751
  endloop
 endfacet
 facet normal -0.200328 0.0883106 -0.975741
  outer loop
   vertex -0.0139093 0.00648693 0.0228629
   vertex -0.0139399 0.00712906 0.0229273
   vertex -0.0137881 0.00720128 0.0229027
  endloop
 endfacet
 facet normal -0.214375 0.0873489 -0.972838
  outer loop
   vertex -0.0139093 0.00648693 0.0228629
   vertex -0.0140779 0.00703214 0.022949
   vertex -0.0139399 0.00712906 0.0229273
  endloop
 endfacet
 facet normal -0.21753 0.086278 -0.972233
  outer loop
   vertex -0.0139093 0.00648693 0.0228629
   vertex -0.0142008 0.0069096 0.0229656
   vertex -0.0140779 0.00703214 0.022949
  endloop
 endfacet
 facet normal -0.214313 0.0886191 -0.972737
  outer loop
   vertex -0.0139093 0.00648693 0.0228629
   vertex -0.0142782 0.00680443 0.0229731
   vertex -0.0142008 0.0069096 0.0229656
  endloop
 endfacet
 facet normal -0.209851 0.093967 -0.973207
  outer loop
   vertex -0.0139093 0.00648693 0.0228629
   vertex -0.0143423 0.00668793 0.0229757
   vertex -0.0142782 0.00680443 0.0229731
  endloop
 endfacet
 facet normal -0.205409 0.103525 -0.973185
  outer loop
   vertex -0.0139093 0.00648693 0.0228629
   vertex -0.0144143 0.00647275 0.022968
   vertex -0.0143423 0.00668793 0.0229757
  endloop
 endfacet
 facet normal -0.205448 0.111562 -0.972289
  outer loop
   vertex -0.0139093 0.00648693 0.0228629
   vertex -0.014436 0.00626742 0.022949
   vertex -0.0144143 0.00647275 0.022968
  endloop
 endfacet
 facet normal -0.204188 0.10829 -0.972924
  outer loop
   vertex -0.0139093 0.00648693 0.0228629
   vertex -0.0144197 0.00608536 0.0229253
   vertex -0.014436 0.00626742 0.022949
  endloop
 endfacet
 facet normal -0.194826 0.0958904 -0.976139
  outer loop
   vertex -0.0139093 0.00648693 0.0228629
   vertex -0.0143745 0.00592014 0.0229001
   vertex -0.0144197 0.00608536 0.0229253
  endloop
 endfacet
 facet normal -0.0694235 0.0325065 -0.997058
  outer loop
   vertex -0.0139093 0.00648693 0.0228629
   vertex -0.0133215 0.00658003 0.022825
   vertex -0.0136044 0.00597586 0.022825
  endloop
 endfacet
 facet normal -0.0749195 0.0680979 -0.994862
  outer loop
   vertex -0.0139093 0.00648693 0.0228629
   vertex -0.0137881 0.00720128 0.0229027
   vertex -0.0133215 0.00658003 0.022825
  endloop
 endfacet
 facet normal -0.0980997 0.0152519 -0.99506
  outer loop
   vertex -0.0139093 0.00648693 0.0228629
   vertex -0.0136044 0.00597586 0.022825
   vertex -0.0143745 0.00592014 0.0229001
  endloop
 endfacet
 facet normal 0.101904 -0.124609 -0.986959
  outer loop
   vertex -0.0133215 0.00658003 0.022825
   vertex -0.0125982 0.00681128 0.0228705
   vertex -0.0125307 0.00669008 0.0228928
  endloop
 endfacet
 facet normal 0.0928459 -0.0954628 -0.991094
  outer loop
   vertex -0.0133215 0.00658003 0.022825
   vertex -0.0127035 0.00694608 0.0228476
   vertex -0.0125982 0.00681128 0.0228705
  endloop
 endfacet
 facet normal 0.0694851 -0.0557168 -0.996026
  outer loop
   vertex -0.0133215 0.00658003 0.022825
   vertex -0.0128394 0.00706783 0.0228314
   vertex -0.0127035 0.00694608 0.0228476
  endloop
 endfacet
 facet normal 0.0373023 -0.023867 -0.999019
  outer loop
   vertex -0.0133215 0.00658003 0.022825
   vertex -0.0129394 0.00713331 0.022826
   vertex -0.0128394 0.00706783 0.0228314
  endloop
 endfacet
 facet normal 0.011395 -0.0059736 -0.999917
  outer loop
   vertex -0.0133215 0.00658003 0.022825
   vertex -0.0130118 0.00717088 0.022825
   vertex -0.0129394 0.00713331 0.022826
  endloop
 endfacet
 facet normal 0.161016 0.00127029 -0.986951
  outer loop
   vertex -0.0133338 0.00527056 0.0228682
   vertex -0.0136044 0.00597586 0.022825
   vertex -0.0131664 0.00530233 0.0228956
  endloop
 endfacet
 facet normal 0.131049 -0.0104975 -0.99132
  outer loop
   vertex -0.0134907 0.00526681 0.0228475
   vertex -0.0136044 0.00597586 0.022825
   vertex -0.0133338 0.00527056 0.0228682
  endloop
 endfacet
 facet normal 0.090273 -0.0171776 -0.995769
  outer loop
   vertex -0.0136501 0.0052885 0.0228327
   vertex -0.0136044 0.00597586 0.022825
   vertex -0.0134907 0.00526681 0.0228475
  endloop
 endfacet
 facet normal 0.0322359 -0.0133639 -0.999391
  outer loop
   vertex -0.0138599 0.0053596 0.022825
   vertex -0.0136044 0.00597586 0.022825
   vertex -0.0136501 0.0052885 0.0228327
  endloop
 endfacet
 facet normal 0.0751481 -0.0351869 -0.996551
  outer loop
   vertex -0.0129938 0.0060594 0.0228681
   vertex -0.0136044 0.00597586 0.022825
   vertex -0.0133215 0.00658003 0.022825
  endloop
 endfacet
 facet normal 0.212358 -0.0837846 -0.973593
  outer loop
   vertex -0.0129938 0.0060594 0.0228681
   vertex -0.0129939 0.00536837 0.0229275
   vertex -0.0131664 0.00530233 0.0228956
  endloop
 endfacet
 facet normal 0.236099 -0.0833191 -0.968151
  outer loop
   vertex -0.0129938 0.0060594 0.0228681
   vertex -0.0128324 0.00546812 0.0229583
   vertex -0.0129939 0.00536837 0.0229275
  endloop
 endfacet
 facet normal 0.241123 -0.0817784 -0.967043
  outer loop
   vertex -0.0129938 0.0060594 0.0228681
   vertex -0.0126731 0.00561878 0.0229853
   vertex -0.0128324 0.00546812 0.0229583
  endloop
 endfacet
 facet normal 0.233402 -0.0877619 -0.968412
  outer loop
   vertex -0.0129938 0.0060594 0.0228681
   vertex -0.012589 0.00573376 0.0229952
   vertex -0.0126731 0.00561878 0.0229853
  endloop
 endfacet
 facet normal 0.222053 -0.102352 -0.969648
  outer loop
   vertex -0.0129938 0.0060594 0.0228681
   vertex -0.0124938 0.00593043 0.0229962
   vertex -0.012589 0.00573376 0.0229952
  endloop
 endfacet
 facet normal 0.21665 -0.122225 -0.968568
  outer loop
   vertex -0.0129938 0.0060594 0.0228681
   vertex -0.0124494 0.00610213 0.0229845
   vertex -0.0124938 0.00593043 0.0229962
  endloop
 endfacet
 facet normal 0.217142 -0.13245 -0.967112
  outer loop
   vertex -0.0129938 0.0060594 0.0228681
   vertex -0.0124363 0.00624186 0.0229683
   vertex -0.0124494 0.00610213 0.0229845
  endloop
 endfacet
 facet normal 0.217219 -0.132716 -0.967059
  outer loop
   vertex -0.0129938 0.0060594 0.0228681
   vertex -0.0124441 0.00639204 0.0229459
   vertex -0.0124363 0.00624186 0.0229683
  endloop
 endfacet
 facet normal 0.211771 -0.123135 -0.969531
  outer loop
   vertex -0.0129938 0.0060594 0.0228681
   vertex -0.0124765 0.00654693 0.0229192
   vertex -0.0124441 0.00639204 0.0229459
  endloop
 endfacet
 facet normal 0.195858 -0.105686 -0.974921
  outer loop
   vertex -0.0129938 0.0060594 0.0228681
   vertex -0.0125307 0.00669008 0.0228928
   vertex -0.0124765 0.00654693 0.0229192
  endloop
 endfacet
 facet normal 0.0889849 -0.0264041 -0.995683
  outer loop
   vertex -0.0129938 0.0060594 0.0228681
   vertex -0.0133215 0.00658003 0.022825
   vertex -0.0125307 0.00669008 0.0228928
  endloop
 endfacet
 facet normal 0.0776294 -0.0538542 -0.995527
  outer loop
   vertex -0.0129938 0.0060594 0.0228681
   vertex -0.0131664 0.00530233 0.0228956
   vertex -0.0136044 0.00597586 0.022825
  endloop
 endfacet
endsolid solid
