solid solid
 facet normal 0.0911929 -0.0410521 0.994987
  outer loop
   vertex -0.0141374 0.00236505 0.0291303
   vertex -0.0141554 0.00245866 0.0291359
   vertex -0.0146418 0.00232094 0.0291747
  endloop
 endfacet
 facet normal 0.0901082 -0.0280944 0.995536
  outer loop
   vertex -0.0141372 0.00227698 0.0291278
   vertex -0.0141374 0.00236505 0.0291303
   vertex -0.0146418 0.00232094 0.0291747
  endloop
 endfacet
 facet normal 0.212524 0.00447149 0.977146
  outer loop
   vertex -0.0139717 0.00232018 0.0290965
   vertex -0.0136784 0.00258443 0.0290315
   vertex -0.0141554 0.00245866 0.0291359
  endloop
 endfacet
 facet normal 0.192676 -0.0274804 0.980878
  outer loop
   vertex -0.0139717 0.00232018 0.0290965
   vertex -0.0141374 0.00236505 0.0291303
   vertex -0.0141372 0.00227698 0.0291278
  endloop
 endfacet
 facet normal 0.26943 -0.0626683 0.960979
  outer loop
   vertex -0.0139717 0.00232018 0.0290965
   vertex -0.013646 0.00240289 0.0290106
   vertex -0.0136784 0.00258443 0.0290315
  endloop
 endfacet
 facet normal 0.2677 -0.0548549 0.96194
  outer loop
   vertex -0.0139717 0.00232018 0.0290965
   vertex -0.0136467 0.0022328 0.0290011
   vertex -0.013646 0.00240289 0.0290106
  endloop
 endfacet
 facet normal 0.194564 -0.0203565 0.980679
  outer loop
   vertex -0.0139717 0.00232018 0.0290965
   vertex -0.0141554 0.00245866 0.0291359
   vertex -0.0141374 0.00236505 0.0291303
  endloop
 endfacet
 facet normal 0.0916337 -0.0107964 0.995734
  outer loop
   vertex -0.0141617 0.00215762 0.0291288
   vertex -0.0141372 0.00227698 0.0291278
   vertex -0.0146418 0.00232094 0.0291747
  endloop
 endfacet
 facet normal 0.0970946 0.00538842 0.995261
  outer loop
   vertex -0.0141947 0.0020827 0.0291324
   vertex -0.0141617 0.00215762 0.0291288
   vertex -0.0146418 0.00232094 0.0291747
  endloop
 endfacet
 facet normal 0.23077 -0.00866606 0.97297
  outer loop
   vertex -0.0142361 0.00201816 0.0291375
   vertex -0.0140535 0.001511 0.0290897
   vertex -0.0139285 0.00161901 0.029061
  endloop
 endfacet
 facet normal 0.101213 0.013203 0.994777
  outer loop
   vertex -0.0142361 0.00201816 0.0291375
   vertex -0.0141947 0.0020827 0.0291324
   vertex -0.0146418 0.00232094 0.0291747
  endloop
 endfacet
 facet normal 0.206654 -0.0178476 0.978251
  outer loop
   vertex -0.0142361 0.00201816 0.0291375
   vertex -0.0141901 0.0014273 0.029117
   vertex -0.0140535 0.001511 0.0290897
  endloop
 endfacet
 facet normal 0.170975 -0.0208588 0.985055
  outer loop
   vertex -0.0142361 0.00201816 0.0291375
   vertex -0.0143244 0.00137107 0.0291391
   vertex -0.0141901 0.0014273 0.029117
  endloop
 endfacet
 facet normal 0.129744 -0.015214 0.991431
  outer loop
   vertex -0.0142361 0.00201816 0.0291375
   vertex -0.0144572 0.00133646 0.029156
   vertex -0.0143244 0.00137107 0.0291391
  endloop
 endfacet
 facet normal 0.0810431 0.000723207 0.99671
  outer loop
   vertex -0.0142361 0.00201816 0.0291375
   vertex -0.0146321 0.00131919 0.0291702
   vertex -0.0144572 0.00133646 0.029156
  endloop
 endfacet
 facet normal 0.0270061 0.0314562 0.99914
  outer loop
   vertex -0.0142361 0.00201816 0.0291375
   vertex -0.0148271 0.00133634 0.0291749
   vertex -0.0146321 0.00131919 0.0291702
  endloop
 endfacet
 facet normal 0.0803781 -0.0149451 0.996652
  outer loop
   vertex -0.0142361 0.00201816 0.0291375
   vertex -0.0146418 0.00232094 0.0291747
   vertex -0.0148271 0.00133634 0.0291749
  endloop
 endfacet
 facet normal 0.194363 -0.0319954 0.980408
  outer loop
   vertex -0.0139879 0.00218355 0.0290952
   vertex -0.0141372 0.00227698 0.0291278
   vertex -0.0141617 0.00215762 0.0291288
  endloop
 endfacet
 facet normal 0.271164 -0.0416345 0.961632
  outer loop
   vertex -0.0139879 0.00218355 0.0290952
   vertex -0.0136467 0.0022328 0.0290011
   vertex -0.0139717 0.00232018 0.0290965
  endloop
 endfacet
 facet normal 0.270969 -0.0400522 0.961754
  outer loop
   vertex -0.0139879 0.00218355 0.0290952
   vertex -0.0136936 0.00200203 0.0290047
   vertex -0.0136467 0.0022328 0.0290011
  endloop
 endfacet
 facet normal 0.193953 -0.0326719 0.980467
  outer loop
   vertex -0.0139879 0.00218355 0.0290952
   vertex -0.0139717 0.00232018 0.0290965
   vertex -0.0141372 0.00227698 0.0291278
  endloop
 endfacet
 facet normal 0.186318 -0.0445575 0.981479
  outer loop
   vertex -0.0140254 0.00205544 0.0290992
   vertex -0.0142361 0.00201816 0.0291375
   vertex -0.0139285 0.00161901 0.029061
  endloop
 endfacet
 facet normal 0.270126 -0.0244375 0.962515
  outer loop
   vertex -0.0140254 0.00205544 0.0290992
   vertex -0.0137558 0.00185665 0.0290185
   vertex -0.0136936 0.00200203 0.0290047
  endloop
 endfacet
 facet normal -0.0337455 0.00379582 0.999423
  outer loop
   vertex -0.0146418 0.00232094 0.0291747
   vertex -0.0145302 0.00331282 0.0291747
   vertex -0.0146714 0.00331872 0.02917
  endloop
 endfacet
 facet normal 0.271958 -0.0217702 0.962063
  outer loop
   vertex -0.0140254 0.00205544 0.0290992
   vertex -0.0138341 0.00173051 0.0290378
   vertex -0.0137558 0.00185665 0.0290185
  endloop
 endfacet
 facet normal 0.0111702 -0.00125647 0.999937
  outer loop
   vertex -0.0146418 0.00232094 0.0291747
   vertex -0.0143821 0.00328465 0.0291731
   vertex -0.0145302 0.00331282 0.0291747
  endloop
 endfacet
 facet normal 0.266719 -0.0251158 0.963447
  outer loop
   vertex -0.0140254 0.00205544 0.0290992
   vertex -0.0139285 0.00161901 0.029061
   vertex -0.0138341 0.00173051 0.0290378
  endloop
 endfacet
 facet normal 0.187121 -0.0348622 0.981718
  outer loop
   vertex -0.0140254 0.00205544 0.0290992
   vertex -0.0141617 0.00215762 0.0291288
   vertex -0.0141947 0.0020827 0.0291324
  endloop
 endfacet
 facet normal 0.266388 -0.0479352 0.962673
  outer loop
   vertex -0.0140254 0.00205544 0.0290992
   vertex -0.0136936 0.00200203 0.0290047
   vertex -0.0139879 0.00218355 0.0290952
  endloop
 endfacet
 facet normal 0.193538 -0.026021 0.980748
  outer loop
   vertex -0.0140254 0.00205544 0.0290992
   vertex -0.0139879 0.00218355 0.0290952
   vertex -0.0141617 0.00215762 0.0291288
  endloop
 endfacet
 facet normal 0.18593 -0.0421857 0.981657
  outer loop
   vertex -0.0140254 0.00205544 0.0290992
   vertex -0.0141947 0.0020827 0.0291324
   vertex -0.0142361 0.00201816 0.0291375
  endloop
 endfacet
 facet normal -0.241132 0.0284927 0.970074
  outer loop
   vertex -0.015238 0.00262317 0.0291182
   vertex -0.0154867 0.0028551 0.0290496
   vertex -0.015566 0.0027026 0.0290343
  endloop
 endfacet
 facet normal -0.239053 0.0308536 0.970516
  outer loop
   vertex -0.015238 0.00262317 0.0291182
   vertex -0.0153996 0.00297237 0.0290673
   vertex -0.0154867 0.0028551 0.0290496
  endloop
 endfacet
 facet normal -0.227799 0.0364296 0.973026
  outer loop
   vertex -0.015238 0.00262317 0.0291182
   vertex -0.0152728 0.00309545 0.0290924
   vertex -0.0153996 0.00297237 0.0290673
  endloop
 endfacet
 facet normal -0.246373 0.0352059 0.968535
  outer loop
   vertex -0.0152856 0.00249919 0.0291131
   vertex -0.015566 0.0027026 0.0290343
   vertex -0.0156302 0.00247557 0.0290263
  endloop
 endfacet
 facet normal -0.235945 0.0503318 0.970462
  outer loop
   vertex -0.0152856 0.00249919 0.0291131
   vertex -0.015238 0.00262317 0.0291182
   vertex -0.015566 0.0027026 0.0290343
  endloop
 endfacet
 facet normal -0.192166 0.0274052 0.98098
  outer loop
   vertex -0.015071 0.00258331 0.0291462
   vertex -0.0151159 0.00320001 0.0291202
   vertex -0.0152728 0.00309545 0.0290924
  endloop
 endfacet
 facet normal -0.158093 0.0301374 0.986964
  outer loop
   vertex -0.015071 0.00258331 0.0291462
   vertex -0.0149629 0.00326641 0.0291427
   vertex -0.0151159 0.00320001 0.0291202
  endloop
 endfacet
 facet normal -0.117387 0.0237284 0.992803
  outer loop
   vertex -0.015071 0.00258331 0.0291462
   vertex -0.014815 0.00330415 0.0291593
   vertex -0.0149629 0.00326641 0.0291427
  endloop
 endfacet
 facet normal -0.0750502 0.00861433 0.997143
  outer loop
   vertex -0.015071 0.00258331 0.0291462
   vertex -0.0146714 0.00331872 0.02917
   vertex -0.014815 0.00330415 0.0291593
  endloop
 endfacet
 facet normal -0.0645323 0.00287495 0.997911
  outer loop
   vertex -0.015071 0.00258331 0.0291462
   vertex -0.0146418 0.00232094 0.0291747
   vertex -0.0146714 0.00331872 0.02917
  endloop
 endfacet
 facet normal -0.155368 0.0425357 0.98694
  outer loop
   vertex -0.015071 0.00258331 0.0291462
   vertex -0.0152728 0.00309545 0.0290924
   vertex -0.015238 0.00262317 0.0291182
  endloop
 endfacet
 facet normal -0.246437 0.0424834 0.968227
  outer loop
   vertex -0.0153104 0.00237296 0.0291122
   vertex -0.0156302 0.00247557 0.0290263
   vertex -0.0156419 0.00231622 0.0290303
  endloop
 endfacet
 facet normal -0.246723 0.0415657 0.968194
  outer loop
   vertex -0.0153104 0.00237296 0.0291122
   vertex -0.0152856 0.00249919 0.0291131
   vertex -0.0156302 0.00247557 0.0290263
  endloop
 endfacet
 facet normal -0.0728775 -0.010844 0.997282
  outer loop
   vertex -0.0151103 0.00250922 0.0291426
   vertex -0.0146418 0.00232094 0.0291747
   vertex -0.015071 0.00258331 0.0291462
  endloop
 endfacet
 facet normal -0.157287 0.034502 0.98695
  outer loop
   vertex -0.0151103 0.00250922 0.0291426
   vertex -0.015071 0.00258331 0.0291462
   vertex -0.015238 0.00262317 0.0291182
  endloop
 endfacet
 facet normal -0.167073 0.023265 0.98567
  outer loop
   vertex -0.0151103 0.00250922 0.0291426
   vertex -0.015238 0.00262317 0.0291182
   vertex -0.0152856 0.00249919 0.0291131
  endloop
 endfacet
 facet normal -0.242407 0.0462825 0.96907
  outer loop
   vertex -0.0153109 0.00227608 0.029115
   vertex -0.0156419 0.00231622 0.0290303
   vertex -0.0156329 0.00217926 0.0290391
  endloop
 endfacet
 facet normal -0.244468 0.0295666 0.969206
  outer loop
   vertex -0.0153109 0.00227608 0.029115
   vertex -0.0153104 0.00237296 0.0291122
   vertex -0.0156419 0.00231622 0.0290303
  endloop
 endfacet
 facet normal -0.0678385 0.00176547 0.997695
  outer loop
   vertex -0.0151419 0.00239925 0.0291406
   vertex -0.0146418 0.00232094 0.0291747
   vertex -0.0151103 0.00250922 0.0291426
  endloop
 endfacet
 facet normal -0.167446 0.0305412 0.985408
  outer loop
   vertex -0.0151419 0.00239925 0.0291406
   vertex -0.0151103 0.00250922 0.0291426
   vertex -0.0152856 0.00249919 0.0291131
  endloop
 endfacet
 facet normal -0.170243 0.0264204 0.985048
  outer loop
   vertex -0.0151419 0.00239925 0.0291406
   vertex -0.0152856 0.00249919 0.0291131
   vertex -0.0153104 0.00237296 0.0291122
  endloop
 endfacet
 facet normal -0.169946 0.0244094 0.985151
  outer loop
   vertex -0.0151473 0.00232199 0.0291416
   vertex -0.0151419 0.00239925 0.0291406
   vertex -0.0153104 0.00237296 0.0291122
  endloop
 endfacet
 facet normal -0.0654274 0.0171684 0.99771
  outer loop
   vertex -0.0151473 0.00232199 0.0291416
   vertex -0.0146418 0.00232094 0.0291747
   vertex -0.0151419 0.00239925 0.0291406
  endloop
 endfacet
 facet normal -0.168344 0.0296103 0.985283
  outer loop
   vertex -0.0151473 0.00232199 0.0291416
   vertex -0.0153104 0.00237296 0.0291122
   vertex -0.0153109 0.00227608 0.029115
  endloop
 endfacet
 facet normal -0.234935 0.0486841 0.970791
  outer loop
   vertex -0.0152963 0.00218138 0.0291204
   vertex -0.0156329 0.00217926 0.0290391
   vertex -0.0155989 0.00202728 0.0290549
  endloop
 endfacet
 facet normal -0.219912 0.0332926 0.974952
  outer loop
   vertex -0.0152963 0.00218138 0.0291204
   vertex -0.0155361 0.00187035 0.029077
   vertex -0.0154544 0.00173533 0.0291
  endloop
 endfacet
 facet normal -0.232436 0.0434137 0.971642
  outer loop
   vertex -0.0152963 0.00218138 0.0291204
   vertex -0.0155989 0.00202728 0.0290549
   vertex -0.0155361 0.00187035 0.029077
  endloop
 endfacet
 facet normal -0.234996 0.0194927 0.971801
  outer loop
   vertex -0.0152963 0.00218138 0.0291204
   vertex -0.0153109 0.00227608 0.029115
   vertex -0.0156329 0.00217926 0.0290391
  endloop
 endfacet
 facet normal -0.165634 0.0195404 0.985994
  outer loop
   vertex -0.0151425 0.00225544 0.0291437
   vertex -0.0151473 0.00232199 0.0291416
   vertex -0.0153109 0.00227608 0.029115
  endloop
 endfacet
 facet normal -0.0653923 0.0271678 0.99749
  outer loop
   vertex -0.0151425 0.00225544 0.0291437
   vertex -0.0146418 0.00232094 0.0291747
   vertex -0.0151473 0.00232199 0.0291416
  endloop
 endfacet
 facet normal -0.164188 0.0312502 0.985934
  outer loop
   vertex -0.0151425 0.00225544 0.0291437
   vertex -0.0153109 0.00227608 0.029115
   vertex -0.0152963 0.00218138 0.0291204
  endloop
 endfacet
 facet normal -0.0264844 0.0230667 0.999383
  outer loop
   vertex -0.0151252 0.00218124 0.0291475
   vertex -0.0149852 0.0013797 0.0291697
   vertex -0.0148271 0.00133634 0.0291749
  endloop
 endfacet
 facet normal -0.0751553 0.0144996 0.997066
  outer loop
   vertex -0.0151252 0.00218124 0.0291475
   vertex -0.0151145 0.00143757 0.0291591
   vertex -0.0149852 0.0013797 0.0291697
  endloop
 endfacet
 facet normal -0.117311 0.0138306 0.992999
  outer loop
   vertex -0.0151252 0.00218124 0.0291475
   vertex -0.0152315 0.00151101 0.0291443
   vertex -0.0151145 0.00143757 0.0291591
  endloop
 endfacet
 facet normal -0.155314 0.0198819 0.987665
  outer loop
   vertex -0.0151252 0.00218124 0.0291475
   vertex -0.0153505 0.00161291 0.0291236
   vertex -0.0152315 0.00151101 0.0291443
  endloop
 endfacet
 facet normal -0.184916 0.0318429 0.982238
  outer loop
   vertex -0.0151252 0.00218124 0.0291475
   vertex -0.0154544 0.00173533 0.0291
   vertex -0.0153505 0.00161291 0.0291236
  endloop
 endfacet
 facet normal -0.156344 0.0144404 0.987597
  outer loop
   vertex -0.0151252 0.00218124 0.0291475
   vertex -0.0151425 0.00225544 0.0291437
   vertex -0.0152963 0.00218138 0.0291204
  endloop
 endfacet
 facet normal -0.0594923 0.0113812 0.998164
  outer loop
   vertex -0.0151252 0.00218124 0.0291475
   vertex -0.0148271 0.00133634 0.0291749
   vertex -0.0146418 0.00232094 0.0291747
  endloop
 endfacet
 facet normal -0.066507 0.0358529 0.997142
  outer loop
   vertex -0.0151252 0.00218124 0.0291475
   vertex -0.0146418 0.00232094 0.0291747
   vertex -0.0151425 0.00225544 0.0291437
  endloop
 endfacet
 facet normal -0.156355 0.0101837 0.987648
  outer loop
   vertex -0.0151252 0.00218124 0.0291475
   vertex -0.0152963 0.00218138 0.0291204
   vertex -0.0154544 0.00173533 0.0291
  endloop
 endfacet
 facet normal 0.0495194 -0.0313769 0.99828
  outer loop
   vertex -0.0141554 0.00245866 0.0291359
   vertex -0.0142459 0.00323715 0.0291648
   vertex -0.0143821 0.00328465 0.0291731
  endloop
 endfacet
 facet normal 0.101737 -0.0251636 0.994493
  outer loop
   vertex -0.0141554 0.00245866 0.0291359
   vertex -0.0140996 0.00315894 0.0291479
   vertex -0.0142459 0.00323715 0.0291648
  endloop
 endfacet
 facet normal 0.158308 -0.0295436 0.986948
  outer loop
   vertex -0.0141554 0.00245866 0.0291359
   vertex -0.0139462 0.00303693 0.0291196
   vertex -0.0140996 0.00315894 0.0291479
  endloop
 endfacet
 facet normal 0.203529 -0.0461528 0.97798
  outer loop
   vertex -0.0141554 0.00245866 0.0291359
   vertex -0.0138196 0.00288731 0.0290862
   vertex -0.0139462 0.00303693 0.0291196
  endloop
 endfacet
 facet normal 0.226471 -0.0648363 0.971858
  outer loop
   vertex -0.0141554 0.00245866 0.0291359
   vertex -0.0137267 0.00272092 0.0290535
   vertex -0.0138196 0.00288731 0.0290862
  endloop
 endfacet
 facet normal 0.2316 -0.0738014 0.970008
  outer loop
   vertex -0.0141554 0.00245866 0.0291359
   vertex -0.0136784 0.00258443 0.0290315
   vertex -0.0137267 0.00272092 0.0290535
  endloop
 endfacet
 facet normal 0.0857019 -0.0213464 0.996092
  outer loop
   vertex -0.0141554 0.00245866 0.0291359
   vertex -0.0143821 0.00328465 0.0291731
   vertex -0.0146418 0.00232094 0.0291747
  endloop
 endfacet
 facet normal 0.146213 0.11873 0.982102
  outer loop
   vertex -0.0116022 -0.00817183 0.0291006
   vertex -0.0117319 -0.00774878 0.0290687
   vertex -0.01175 -0.0082688 0.0291343
  endloop
 endfacet
 facet normal 0.148637 0.11506 0.982175
  outer loop
   vertex -0.0116022 -0.00817183 0.0291006
   vertex -0.01175 -0.0082688 0.0291343
   vertex -0.0116493 -0.00834026 0.0291274
  endloop
 endfacet
 facet normal 0.226257 0.141889 0.963678
  outer loop
   vertex -0.0116022 -0.00817183 0.0291006
   vertex -0.0115058 -0.00784101 0.0290292
   vertex -0.0117319 -0.00774878 0.0290687
  endloop
 endfacet
 facet normal 0.23093 0.140337 0.962796
  outer loop
   vertex -0.0116022 -0.00817183 0.0291006
   vertex -0.0113127 -0.00798163 0.0290034
   vertex -0.0115058 -0.00784101 0.0290292
  endloop
 endfacet
 facet normal 0.0817934 0.0507794 0.995355
  outer loop
   vertex -0.0115714 -0.00843106 0.0291257
   vertex -0.0116493 -0.00834026 0.0291274
   vertex -0.0119924 -0.00871183 0.0291746
  endloop
 endfacet
 facet normal 0.07187 0.0656409 0.995252
  outer loop
   vertex -0.0115294 -0.00850803 0.0291277
   vertex -0.0115714 -0.00843106 0.0291257
   vertex -0.0119924 -0.00871183 0.0291746
  endloop
 endfacet
 facet normal 0.187766 0.169904 0.967407
  outer loop
   vertex -0.0115294 -0.00850803 0.0291277
   vertex -0.0109942 -0.00874594 0.0290656
   vertex -0.0110028 -0.00857895 0.029038
  endloop
 endfacet
 facet normal 0.180033 0.151324 0.971951
  outer loop
   vertex -0.0115294 -0.00850803 0.0291277
   vertex -0.0110161 -0.00892445 0.0290975
   vertex -0.0109942 -0.00874594 0.0290656
  endloop
 endfacet
 facet normal 0.15579 0.120831 0.980372
  outer loop
   vertex -0.0115294 -0.00850803 0.0291277
   vertex -0.0110753 -0.00910961 0.0291297
   vertex -0.0110161 -0.00892445 0.0290975
  endloop
 endfacet
 facet normal 0.117035 0.091607 0.988894
  outer loop
   vertex -0.0115294 -0.00850803 0.0291277
   vertex -0.0111436 -0.00924055 0.0291499
   vertex -0.0110753 -0.00910961 0.0291297
  endloop
 endfacet
 facet normal 0.0804217 0.0724826 0.994122
  outer loop
   vertex -0.0115294 -0.00850803 0.0291277
   vertex -0.0112044 -0.00932793 0.0291612
   vertex -0.0111436 -0.00924055 0.0291499
  endloop
 endfacet
 facet normal 0.0705516 0.0686121 0.995146
  outer loop
   vertex -0.0115294 -0.00850803 0.0291277
   vertex -0.0119924 -0.00871183 0.0291746
   vertex -0.0112044 -0.00932793 0.0291612
  endloop
 endfacet
 facet normal 0.16079 0.118866 0.979805
  outer loop
   vertex -0.0114848 -0.00827898 0.029093
   vertex -0.0116493 -0.00834026 0.0291274
   vertex -0.0115714 -0.00843106 0.0291257
  endloop
 endfacet
 facet normal 0.213819 0.166293 0.962615
  outer loop
   vertex -0.0114848 -0.00827898 0.029093
   vertex -0.0113127 -0.00798163 0.0290034
   vertex -0.0116022 -0.00817183 0.0291006
  endloop
 endfacet
 facet normal 0.227761 0.157696 0.960863
  outer loop
   vertex -0.0114848 -0.00827898 0.029093
   vertex -0.0111628 -0.00815753 0.0289967
   vertex -0.0113127 -0.00798163 0.0290034
  endloop
 endfacet
 facet normal 0.164017 0.110453 0.980254
  outer loop
   vertex -0.0114848 -0.00827898 0.029093
   vertex -0.0116022 -0.00817183 0.0291006
   vertex -0.0116493 -0.00834026 0.0291274
  endloop
 endfacet
 facet normal 0.161995 0.118155 0.979692
  outer loop
   vertex -0.0114056 -0.00838943 0.0290932
   vertex -0.0114848 -0.00827898 0.029093
   vertex -0.0115714 -0.00843106 0.0291257
  endloop
 endfacet
 facet normal 0.225425 0.163549 0.960435
  outer loop
   vertex -0.0114056 -0.00838943 0.0290932
   vertex -0.0111628 -0.00815753 0.0289967
   vertex -0.0114848 -0.00827898 0.029093
  endloop
 endfacet
 facet normal 0.218619 0.170807 0.960745
  outer loop
   vertex -0.0114056 -0.00838943 0.0290932
   vertex -0.0110808 -0.00830579 0.0290044
   vertex -0.0111628 -0.00815753 0.0289967
  endloop
 endfacet
 facet normal 0.216117 0.179454 0.959734
  outer loop
   vertex -0.0114056 -0.00838943 0.0290932
   vertex -0.0110028 -0.00857895 0.029038
   vertex -0.0110808 -0.00830579 0.0290044
  endloop
 endfacet
 facet normal 0.162853 0.114927 0.979934
  outer loop
   vertex -0.0114056 -0.00838943 0.0290932
   vertex -0.0115714 -0.00843106 0.0291257
   vertex -0.0115294 -0.00850803 0.0291277
  endloop
 endfacet
 facet normal 0.179886 0.0968578 0.978907
  outer loop
   vertex -0.0114056 -0.00838943 0.0290932
   vertex -0.0115294 -0.00850803 0.0291277
   vertex -0.0110028 -0.00857895 0.029038
  endloop
 endfacet
 facet normal 0.0178025 0.0119925 0.99977
  outer loop
   vertex -0.0119924 -0.00871183 0.0291746
   vertex -0.011444 -0.0095493 0.0291749
   vertex -0.011292 -0.0094264 0.0291707
  endloop
 endfacet
 facet normal -0.0222608 -0.0177687 0.999594
  outer loop
   vertex -0.0119924 -0.00871183 0.0291746
   vertex -0.0126049 -0.00792247 0.029175
   vertex -0.0127224 -0.00802908 0.0291705
  endloop
 endfacet
 facet normal 0.0157803 0.0117497 0.999806
  outer loop
   vertex -0.0119924 -0.00871183 0.0291746
   vertex -0.0124781 -0.0078391 0.029172
   vertex -0.0126049 -0.00792247 0.029175
  endloop
 endfacet
 facet normal 0.0543105 0.0477903 0.99738
  outer loop
   vertex -0.0119924 -0.00871183 0.0291746
   vertex -0.011292 -0.0094264 0.0291707
   vertex -0.0112044 -0.00932793 0.0291612
  endloop
 endfacet
 facet normal -0.18719 -0.148556 0.971026
  outer loop
   vertex -0.0126306 -0.00891354 0.0291208
   vertex -0.0129728 -0.00891719 0.0290542
   vertex -0.0129198 -0.0090913 0.0290378
  endloop
 endfacet
 facet normal -0.187345 -0.144545 0.971601
  outer loop
   vertex -0.0126306 -0.00891354 0.0291208
   vertex -0.0129925 -0.0087629 0.0290734
   vertex -0.0129728 -0.00891719 0.0290542
  endloop
 endfacet
 facet normal -0.182839 -0.132931 0.974115
  outer loop
   vertex -0.0126306 -0.00891354 0.0291208
   vertex -0.0129891 -0.00861881 0.0290937
   vertex -0.0129925 -0.0087629 0.0290734
  endloop
 endfacet
 facet normal -0.196133 -0.147645 0.969398
  outer loop
   vertex -0.0125755 -0.00903971 0.0291153
   vertex -0.0129198 -0.0090913 0.0290378
   vertex -0.0128027 -0.0093017 0.0290294
  endloop
 endfacet
 facet normal -0.199398 -0.128873 0.971407
  outer loop
   vertex -0.0125755 -0.00903971 0.0291153
   vertex -0.0126306 -0.00891354 0.0291208
   vertex -0.0129198 -0.0090913 0.0290378
  endloop
 endfacet
 facet normal -0.137179 -0.0761418 0.987616
  outer loop
   vertex -0.0124838 -0.0088227 0.0291481
   vertex -0.0129891 -0.00861881 0.0290937
   vertex -0.0126306 -0.00891354 0.0291208
  endloop
 endfacet
 facet normal -0.153886 -0.119355 0.980853
  outer loop
   vertex -0.0124838 -0.0088227 0.0291481
   vertex -0.0129656 -0.00847869 0.0291144
   vertex -0.0129891 -0.00861881 0.0290937
  endloop
 endfacet
 facet normal -0.137982 -0.0966041 0.985712
  outer loop
   vertex -0.0124838 -0.0088227 0.0291481
   vertex -0.0129099 -0.00831315 0.0291384
   vertex -0.0129656 -0.00847869 0.0291144
  endloop
 endfacet
 facet normal -0.105383 -0.0692274 0.992019
  outer loop
   vertex -0.0124838 -0.0088227 0.0291481
   vertex -0.012825 -0.00815814 0.0291583
   vertex -0.0129099 -0.00831315 0.0291384
  endloop
 endfacet
 facet normal -0.0603521 -0.0461851 0.997108
  outer loop
   vertex -0.0124838 -0.0088227 0.0291481
   vertex -0.0127224 -0.00802908 0.0291705
   vertex -0.012825 -0.00815814 0.0291583
  endloop
 endfacet
 facet normal -0.0443626 -0.041408 0.998157
  outer loop
   vertex -0.0124838 -0.0088227 0.0291481
   vertex -0.0119924 -0.00871183 0.0291746
   vertex -0.0127224 -0.00802908 0.0291705
  endloop
 endfacet
 facet normal -0.20135 -0.143971 0.968881
  outer loop
   vertex -0.012517 -0.00913372 0.0291138
   vertex -0.0128027 -0.0093017 0.0290294
   vertex -0.0127404 -0.00937903 0.0290309
  endloop
 endfacet
 facet normal -0.202582 -0.1419 0.96893
  outer loop
   vertex -0.012517 -0.00913372 0.0291138
   vertex -0.0125755 -0.00903971 0.0291153
   vertex -0.0128027 -0.0093017 0.0290294
  endloop
 endfacet
 facet normal -0.0406333 -0.0577801 0.997502
  outer loop
   vertex -0.0124586 -0.00890791 0.0291442
   vertex -0.0119924 -0.00871183 0.0291746
   vertex -0.0124838 -0.0088227 0.0291481
  endloop
 endfacet
 facet normal -0.132104 -0.0843493 0.987641
  outer loop
   vertex -0.0124586 -0.00890791 0.0291442
   vertex -0.0124838 -0.0088227 0.0291481
   vertex -0.0126306 -0.00891354 0.0291208
  endloop
 endfacet
 facet normal -0.13141 -0.099854 0.986286
  outer loop
   vertex -0.0124586 -0.00890791 0.0291442
   vertex -0.0126306 -0.00891354 0.0291208
   vertex -0.0125755 -0.00903971 0.0291153
  endloop
 endfacet
 facet normal -0.202199 -0.140201 0.969257
  outer loop
   vertex -0.0124733 -0.00918244 0.0291151
   vertex -0.0127404 -0.00937903 0.0290309
   vertex -0.0126692 -0.00945119 0.0290353
  endloop
 endfacet
 facet normal -0.19523 -0.149675 0.969269
  outer loop
   vertex -0.0124733 -0.00918244 0.0291151
   vertex -0.012517 -0.00913372 0.0291138
   vertex -0.0127404 -0.00937903 0.0290309
  endloop
 endfacet
 facet normal -0.137021 -0.0948195 0.98602
  outer loop
   vertex -0.0124023 -0.00901017 0.0291422
   vertex -0.0124586 -0.00890791 0.0291442
   vertex -0.0125755 -0.00903971 0.0291153
  endloop
 endfacet
 facet normal -0.0460699 -0.044919 0.997928
  outer loop
   vertex -0.0124023 -0.00901017 0.0291422
   vertex -0.0119924 -0.00871183 0.0291746
   vertex -0.0124586 -0.00890791 0.0291442
  endloop
 endfacet
 facet normal -0.135959 -0.100655 0.985588
  outer loop
   vertex -0.0124023 -0.00901017 0.0291422
   vertex -0.0125755 -0.00903971 0.0291153
   vertex -0.012517 -0.00913372 0.0291138
  endloop
 endfacet
 facet normal -0.192331 -0.135879 0.971877
  outer loop
   vertex -0.0124127 -0.00923514 0.0291184
   vertex -0.0124313 -0.00961308 0.0290619
   vertex -0.0122967 -0.0096669 0.029081
  endloop
 endfacet
 facet normal -0.200032 -0.13528 0.970405
  outer loop
   vertex -0.0124127 -0.00923514 0.0291184
   vertex -0.0125561 -0.00954082 0.0290463
   vertex -0.0124313 -0.00961308 0.0290619
  endloop
 endfacet
 facet normal -0.200823 -0.134883 0.970297
  outer loop
   vertex -0.0124127 -0.00923514 0.0291184
   vertex -0.0126692 -0.00945119 0.0290353
   vertex -0.0125561 -0.00954082 0.0290463
  endloop
 endfacet
 facet normal -0.186416 -0.152116 0.970623
  outer loop
   vertex -0.0124127 -0.00923514 0.0291184
   vertex -0.0124733 -0.00918244 0.0291151
   vertex -0.0126692 -0.00945119 0.0290353
  endloop
 endfacet
 facet normal -0.137734 -0.0976671 0.985642
  outer loop
   vertex -0.012372 -0.00904758 0.0291426
   vertex -0.012517 -0.00913372 0.0291138
   vertex -0.0124733 -0.00918244 0.0291151
  endloop
 endfacet
 facet normal -0.135932 -0.10068 0.985589
  outer loop
   vertex -0.012372 -0.00904758 0.0291426
   vertex -0.0124023 -0.00901017 0.0291422
   vertex -0.012517 -0.00913372 0.0291138
  endloop
 endfacet
 facet normal -0.0538727 -0.0342033 0.997962
  outer loop
   vertex -0.012372 -0.00904758 0.0291426
   vertex -0.0119924 -0.00871183 0.0291746
   vertex -0.0124023 -0.00901017 0.0291422
  endloop
 endfacet
 facet normal -0.137402 -0.0948173 0.985967
  outer loop
   vertex -0.0123373 -0.00908242 0.0291436
   vertex -0.0124733 -0.00918244 0.0291151
   vertex -0.0124127 -0.00923514 0.0291184
  endloop
 endfacet
 facet normal -0.132199 -0.101889 0.985973
  outer loop
   vertex -0.0123373 -0.00908242 0.0291436
   vertex -0.012372 -0.00904758 0.0291426
   vertex -0.0124733 -0.00918244 0.0291151
  endloop
 endfacet
 facet normal -0.0588672 -0.0285465 0.997858
  outer loop
   vertex -0.0123373 -0.00908242 0.0291436
   vertex -0.0119924 -0.00871183 0.0291746
   vertex -0.012372 -0.00904758 0.0291426
  endloop
 endfacet
 facet normal -0.0649709 -0.0228461 0.997626
  outer loop
   vertex -0.0122819 -0.00912565 0.0291462
   vertex -0.0119924 -0.00871183 0.0291746
   vertex -0.0123373 -0.00908242 0.0291436
  endloop
 endfacet
 facet normal -0.125347 -0.100931 0.986966
  outer loop
   vertex -0.0122819 -0.00912565 0.0291462
   vertex -0.0123373 -0.00908242 0.0291436
   vertex -0.0124127 -0.00923514 0.0291184
  endloop
 endfacet
 facet normal -0.039068 -0.0140325 0.999138
  outer loop
   vertex -0.0122205 -0.00916052 0.02915
   vertex -0.0116331 -0.00964664 0.0291661
   vertex -0.011444 -0.0095493 0.0291749
  endloop
 endfacet
 facet normal -0.0802598 -0.0639512 0.99472
  outer loop
   vertex -0.0122205 -0.00916052 0.02915
   vertex -0.0118242 -0.00969946 0.0291473
   vertex -0.0116331 -0.00964664 0.0291661
  endloop
 endfacet
 facet normal -0.120014 -0.093146 0.988393
  outer loop
   vertex -0.0122205 -0.00916052 0.02915
   vertex -0.0119954 -0.00971391 0.0291251
   vertex -0.0118242 -0.00969946 0.0291473
  endloop
 endfacet
 facet normal -0.150577 -0.10533 0.982971
  outer loop
   vertex -0.0122205 -0.00916052 0.02915
   vertex -0.012152 -0.00970131 0.0291025
   vertex -0.0119954 -0.00971391 0.0291251
  endloop
 endfacet
 facet normal -0.170874 -0.107586 0.979401
  outer loop
   vertex -0.0122205 -0.00916052 0.02915
   vertex -0.0122967 -0.0096669 0.029081
   vertex -0.012152 -0.00970131 0.0291025
  endloop
 endfacet
 facet normal -0.0708353 -0.0187221 0.997312
  outer loop
   vertex -0.0122205 -0.00916052 0.02915
   vertex -0.0119924 -0.00871183 0.0291746
   vertex -0.0122819 -0.00912565 0.0291462
  endloop
 endfacet
 facet normal -0.120295 -0.106963 0.986959
  outer loop
   vertex -0.0122205 -0.00916052 0.02915
   vertex -0.0122819 -0.00912565 0.0291462
   vertex -0.0124127 -0.00923514 0.0291184
  endloop
 endfacet
 facet normal -0.116399 -0.116732 0.986319
  outer loop
   vertex -0.0122205 -0.00916052 0.02915
   vertex -0.0124127 -0.00923514 0.0291184
   vertex -0.0122967 -0.0096669 0.029081
  endloop
 endfacet
 facet normal -0.0473891 -0.0306981 0.998405
  outer loop
   vertex -0.0122205 -0.00916052 0.02915
   vertex -0.011444 -0.0095493 0.0291749
   vertex -0.0119924 -0.00871183 0.0291746
  endloop
 endfacet
 facet normal 0.0646306 0.0220049 0.997667
  outer loop
   vertex -0.01175 -0.0082688 0.0291343
   vertex -0.0123318 -0.00777282 0.0291611
   vertex -0.0124781 -0.0078391 0.029172
  endloop
 endfacet
 facet normal 0.102007 0.0661231 0.992584
  outer loop
   vertex -0.01175 -0.0082688 0.0291343
   vertex -0.0121548 -0.00772697 0.0291398
   vertex -0.0123318 -0.00777282 0.0291611
  endloop
 endfacet
 facet normal 0.147615 0.100278 0.983948
  outer loop
   vertex -0.01175 -0.0082688 0.0291343
   vertex -0.0119577 -0.00771456 0.029109
   vertex -0.0121548 -0.00772697 0.0291398
  endloop
 endfacet
 facet normal 0.191297 0.11622 0.974627
  outer loop
   vertex -0.01175 -0.0082688 0.0291343
   vertex -0.0117319 -0.00774878 0.0290687
   vertex -0.0119577 -0.00771456 0.029109
  endloop
 endfacet
 facet normal 0.0793517 0.0471176 0.995733
  outer loop
   vertex -0.01175 -0.0082688 0.0291343
   vertex -0.0124781 -0.0078391 0.029172
   vertex -0.0119924 -0.00871183 0.0291746
  endloop
 endfacet
 facet normal 0.0951075 0.038406 0.994726
  outer loop
   vertex -0.0116493 -0.00834026 0.0291274
   vertex -0.01175 -0.0082688 0.0291343
   vertex -0.0119924 -0.00871183 0.0291746
  endloop
 endfacet
 facet normal -0.00388664 -0.0490875 0.998787
  outer loop
   vertex -0.00232101 -0.01464 0.0291747
   vertex -0.00331657 -0.0145708 0.0291742
   vertex -0.00331318 -0.0147515 0.0291653
  endloop
 endfacet
 facet normal -0.00016506 0.00443069 0.99999
  outer loop
   vertex -0.00232101 -0.01464 0.0291747
   vertex -0.00328944 -0.0144006 0.0291734
   vertex -0.00331657 -0.0145708 0.0291742
  endloop
 endfacet
 facet normal 0.00436129 0.0208053 0.999774
  outer loop
   vertex -0.00232101 -0.01464 0.0291747
   vertex -0.00134086 -0.0148498 0.0291747
   vertex -0.00131917 -0.0146347 0.0291702
  endloop
 endfacet
 facet normal -0.0294049 -0.24152 0.96995
  outer loop
   vertex -0.00258624 -0.0152537 0.0291176
   vertex -0.00282227 -0.0155067 0.0290474
   vertex -0.00262238 -0.0155954 0.0290314
  endloop
 endfacet
 facet normal -0.0309066 -0.240197 0.970232
  outer loop
   vertex -0.00258624 -0.0152537 0.0291176
   vertex -0.00296239 -0.0154081 0.0290674
   vertex -0.00282227 -0.0155067 0.0290474
  endloop
 endfacet
 facet normal -0.0357067 -0.229306 0.972699
  outer loop
   vertex -0.00258624 -0.0152537 0.0291176
   vertex -0.00307297 -0.0152996 0.0290889
   vertex -0.00296239 -0.0154081 0.0290674
  endloop
 endfacet
 facet normal -0.0359256 -0.245778 0.96866
  outer loop
   vertex -0.00247292 -0.0152945 0.0291133
   vertex -0.00262238 -0.0155954 0.0290314
   vertex -0.00247557 -0.0156302 0.029028
  endloop
 endfacet
 facet normal -0.0494656 -0.239329 0.969678
  outer loop
   vertex -0.00247292 -0.0152945 0.0291133
   vertex -0.00258624 -0.0152537 0.0291176
   vertex -0.00262238 -0.0155954 0.0290314
  endloop
 endfacet
 facet normal -0.0249069 -0.19828 0.979829
  outer loop
   vertex -0.00256731 -0.0150799 0.0291462
   vertex -0.00316321 -0.0151787 0.0291111
   vertex -0.00307297 -0.0152996 0.0290889
  endloop
 endfacet
 facet normal -0.0292827 -0.17351 0.984397
  outer loop
   vertex -0.00256731 -0.0150799 0.0291462
   vertex -0.00323378 -0.0150468 0.0291322
   vertex -0.00316321 -0.0151787 0.0291111
  endloop
 endfacet
 facet normal -0.0277743 -0.141001 0.98962
  outer loop
   vertex -0.00256731 -0.0150799 0.0291462
   vertex -0.00328045 -0.014918 0.0291493
   vertex -0.00323378 -0.0150468 0.0291322
  endloop
 endfacet
 facet normal -0.0183028 -0.0993954 0.99488
  outer loop
   vertex -0.00256731 -0.0150799 0.0291462
   vertex -0.00331318 -0.0147515 0.0291653
   vertex -0.00328045 -0.014918 0.0291493
  endloop
 endfacet
 facet normal -0.00229171 -0.0632151 0.997997
  outer loop
   vertex -0.00256731 -0.0150799 0.0291462
   vertex -0.00232101 -0.01464 0.0291747
   vertex -0.00331318 -0.0147515 0.0291653
  endloop
 endfacet
 facet normal -0.0432537 -0.157786 0.986525
  outer loop
   vertex -0.00256731 -0.0150799 0.0291462
   vertex -0.00307297 -0.0152996 0.0290889
   vertex -0.00258624 -0.0152537 0.0291176
  endloop
 endfacet
 facet normal -0.0422519 -0.24372 0.968925
  outer loop
   vertex -0.00235352 -0.0153093 0.0291141
   vertex -0.00247557 -0.0156302 0.029028
   vertex -0.00225685 -0.0156405 0.029035
  endloop
 endfacet
 facet normal -0.0366668 -0.245766 0.968635
  outer loop
   vertex -0.00235352 -0.0153093 0.0291141
   vertex -0.00247292 -0.0152945 0.0291133
   vertex -0.00247557 -0.0156302 0.029028
  endloop
 endfacet
 facet normal 0.00820836 -0.0690668 0.997578
  outer loop
   vertex -0.00247032 -0.0151238 0.0291424
   vertex -0.00232101 -0.01464 0.0291747
   vertex -0.00256731 -0.0150799 0.0291462
  endloop
 endfacet
 facet normal -0.032932 -0.158945 0.986738
  outer loop
   vertex -0.00247032 -0.0151238 0.0291424
   vertex -0.00256731 -0.0150799 0.0291462
   vertex -0.00258624 -0.0152537 0.0291176
  endloop
 endfacet
 facet normal -0.0230247 -0.167569 0.985592
  outer loop
   vertex -0.00247032 -0.0151238 0.0291424
   vertex -0.00258624 -0.0152537 0.0291176
   vertex -0.00247292 -0.0152945 0.0291133
  endloop
 endfacet
 facet normal -0.0041342 -0.0652765 0.997859
  outer loop
   vertex -0.00239923 -0.0151409 0.0291416
   vertex -0.00232101 -0.01464 0.0291747
   vertex -0.00247032 -0.0151238 0.0291424
  endloop
 endfacet
 facet normal -0.0287682 -0.167459 0.985459
  outer loop
   vertex -0.00239923 -0.0151409 0.0291416
   vertex -0.00247032 -0.0151238 0.0291424
   vertex -0.00247292 -0.0152945 0.0291133
  endloop
 endfacet
 facet normal -0.0272005 -0.168196 0.985378
  outer loop
   vertex -0.00239923 -0.0151409 0.0291416
   vertex -0.00247292 -0.0152945 0.0291133
   vertex -0.00235352 -0.0153093 0.0291141
  endloop
 endfacet
 facet normal -0.0301918 -0.218371 0.975399
  outer loop
   vertex -0.00222939 -0.0153045 0.0291186
   vertex -0.00188657 -0.0155441 0.0290755
   vertex -0.00169753 -0.0154258 0.0291079
  endloop
 endfacet
 facet normal -0.0430458 -0.235939 0.970814
  outer loop
   vertex -0.00222939 -0.0153045 0.0291186
   vertex -0.00209615 -0.0156173 0.0290485
   vertex -0.00188657 -0.0155441 0.0290755
  endloop
 endfacet
 facet normal -0.0470444 -0.237515 0.970244
  outer loop
   vertex -0.00222939 -0.0153045 0.0291186
   vertex -0.00225685 -0.0156405 0.029035
   vertex -0.00209615 -0.0156173 0.0290485
  endloop
 endfacet
 facet normal -0.025854 -0.239333 0.970593
  outer loop
   vertex -0.00222939 -0.0153045 0.0291186
   vertex -0.00235352 -0.0153093 0.0291141
   vertex -0.00225685 -0.0156405 0.029035
  endloop
 endfacet
 facet normal -0.0184815 -0.0630348 0.99784
  outer loop
   vertex -0.00229316 -0.0151455 0.0291432
   vertex -0.00232101 -0.01464 0.0291747
   vertex -0.00239923 -0.0151409 0.0291416
  endloop
 endfacet
 facet normal -0.0292928 -0.164729 0.985904
  outer loop
   vertex -0.00229316 -0.0151455 0.0291432
   vertex -0.00235352 -0.0153093 0.0291141
   vertex -0.00222939 -0.0153045 0.0291186
  endloop
 endfacet
 facet normal -0.0228506 -0.167064 0.985681
  outer loop
   vertex -0.00229316 -0.0151455 0.0291432
   vertex -0.00239923 -0.0151409 0.0291416
   vertex -0.00235352 -0.0153093 0.0291141
  endloop
 endfacet
 facet normal -0.018806 -0.0416241 0.998956
  outer loop
   vertex -0.00221491 -0.0151336 0.0291465
   vertex -0.00140964 -0.0150582 0.0291648
   vertex -0.00134086 -0.0148498 0.0291747
  endloop
 endfacet
 facet normal -0.0120591 -0.112388 0.993591
  outer loop
   vertex -0.00221491 -0.0151336 0.0291465
   vertex -0.00153182 -0.015259 0.0291406
   vertex -0.00140964 -0.0150582 0.0291648
  endloop
 endfacet
 facet normal -0.0227954 -0.170449 0.985103
  outer loop
   vertex -0.00221491 -0.0151336 0.0291465
   vertex -0.00169753 -0.0154258 0.0291079
   vertex -0.00153182 -0.015259 0.0291406
  endloop
 endfacet
 facet normal -0.0128847 -0.0597772 0.998129
  outer loop
   vertex -0.00221491 -0.0151336 0.0291465
   vertex -0.00134086 -0.0148498 0.0291747
   vertex -0.00232101 -0.01464 0.0291747
  endloop
 endfacet
 facet normal -0.016324 -0.1597 0.987031
  outer loop
   vertex -0.00221491 -0.0151336 0.0291465
   vertex -0.00229316 -0.0151455 0.0291432
   vertex -0.00222939 -0.0153045 0.0291186
  endloop
 endfacet
 facet normal -0.0314255 -0.063725 0.997473
  outer loop
   vertex -0.00221491 -0.0151336 0.0291465
   vertex -0.00232101 -0.01464 0.0291747
   vertex -0.00229316 -0.0151455 0.0291432
  endloop
 endfacet
 facet normal -0.016569 -0.15968 0.98703
  outer loop
   vertex -0.00221491 -0.0151336 0.0291465
   vertex -0.00222939 -0.0153045 0.0291186
   vertex -0.00169753 -0.0154258 0.0291079
  endloop
 endfacet
 facet normal 0.0323031 0.0445815 0.998483
  outer loop
   vertex -0.0024856 -0.0141631 0.0291368
   vertex -0.00324799 -0.014272 0.0291663
   vertex -0.00328944 -0.0144006 0.0291734
  endloop
 endfacet
 facet normal 0.0246824 0.0969595 0.994982
  outer loop
   vertex -0.0024856 -0.0141631 0.0291368
   vertex -0.00316844 -0.0141146 0.029149
   vertex -0.00324799 -0.014272 0.0291663
  endloop
 endfacet
 facet normal 0.0288786 0.158019 0.987014
  outer loop
   vertex -0.0024856 -0.0141631 0.0291368
   vertex -0.00303831 -0.0139476 0.0291185
   vertex -0.00316844 -0.0141146 0.029149
  endloop
 endfacet
 facet normal 0.0488041 0.208273 0.976852
  outer loop
   vertex -0.0024856 -0.0141631 0.0291368
   vertex -0.00285032 -0.0137952 0.0290766
   vertex -0.00303831 -0.0139476 0.0291185
  endloop
 endfacet
 facet normal 0.0705122 0.228824 0.970911
  outer loop
   vertex -0.0024856 -0.0141631 0.0291368
   vertex -0.00263693 -0.0136943 0.0290373
   vertex -0.00285032 -0.0137952 0.0290766
  endloop
 endfacet
 facet normal 0.0199844 0.0859101 0.996102
  outer loop
   vertex -0.0024856 -0.0141631 0.0291368
   vertex -0.00328944 -0.0144006 0.0291734
   vertex -0.00232101 -0.01464 0.0291747
  endloop
 endfacet
 facet normal 0.0429723 0.09373 0.99467
  outer loop
   vertex -0.00237701 -0.0141377 0.0291297
   vertex -0.0024856 -0.0141631 0.0291368
   vertex -0.00232101 -0.01464 0.0291747
  endloop
 endfacet
 facet normal 0.0275589 0.0920739 0.995371
  outer loop
   vertex -0.00225701 -0.0141381 0.0291264
   vertex -0.00237701 -0.0141377 0.0291297
   vertex -0.00232101 -0.01464 0.0291747
  endloop
 endfacet
 facet normal 0.0622147 0.271673 0.960377
  outer loop
   vertex -0.0023149 -0.0139732 0.0290954
   vertex -0.00242607 -0.0136482 0.0290106
   vertex -0.00263693 -0.0136943 0.0290373
  endloop
 endfacet
 facet normal 0.0539879 0.269171 0.961578
  outer loop
   vertex -0.0023149 -0.0139732 0.0290954
   vertex -0.0021942 -0.0136503 0.0289982
   vertex -0.00242607 -0.0136482 0.0290106
  endloop
 endfacet
 facet normal 0.0176436 0.198131 0.980017
  outer loop
   vertex -0.0023149 -0.0139732 0.0290954
   vertex -0.0024856 -0.0141631 0.0291368
   vertex -0.00237701 -0.0141377 0.0291297
  endloop
 endfacet
 facet normal 0.0274503 0.194533 0.980512
  outer loop
   vertex -0.0023149 -0.0139732 0.0290954
   vertex -0.00237701 -0.0141377 0.0291297
   vertex -0.00225701 -0.0141381 0.0291264
  endloop
 endfacet
 facet normal 0.0048971 0.20912 0.977878
  outer loop
   vertex -0.0023149 -0.0139732 0.0290954
   vertex -0.00263693 -0.0136943 0.0290373
   vertex -0.0024856 -0.0141631 0.0291368
  endloop
 endfacet
 facet normal 0.00721258 0.0946788 0.995482
  outer loop
   vertex -0.00214116 -0.014167 0.0291284
   vertex -0.00225701 -0.0141381 0.0291264
   vertex -0.00232101 -0.01464 0.0291747
  endloop
 endfacet
 facet normal -0.00719716 0.100106 0.994951
  outer loop
   vertex -0.00206925 -0.0142013 0.0291323
   vertex -0.00214116 -0.014167 0.0291284
   vertex -0.00232101 -0.01464 0.0291747
  endloop
 endfacet
 facet normal 0.0152533 0.231638 0.972682
  outer loop
   vertex -0.00206925 -0.0142013 0.0291323
   vertex -0.00148957 -0.0140841 0.0290953
   vertex -0.00159413 -0.0139537 0.0290659
  endloop
 endfacet
 facet normal 0.0227075 0.197116 0.980117
  outer loop
   vertex -0.00206925 -0.0142013 0.0291323
   vertex -0.00139503 -0.0142604 0.0291286
   vertex -0.00148957 -0.0140841 0.0290953
  endloop
 endfacet
 facet normal 0.0179704 0.142445 0.98964
  outer loop
   vertex -0.00206925 -0.0142013 0.0291323
   vertex -0.00133808 -0.0144488 0.0291547
   vertex -0.00139503 -0.0142604 0.0291286
  endloop
 endfacet
 facet normal -0.00243851 0.0827833 0.996565
  outer loop
   vertex -0.00206925 -0.0142013 0.0291323
   vertex -0.00131917 -0.0146347 0.0291702
   vertex -0.00133808 -0.0144488 0.0291547
  endloop
 endfacet
 facet normal 0.0039573 0.0937662 0.995586
  outer loop
   vertex -0.00206925 -0.0142013 0.0291323
   vertex -0.00232101 -0.01464 0.0291747
   vertex -0.00131917 -0.0146347 0.0291702
  endloop
 endfacet
 facet normal 0.032036 0.196059 0.980069
  outer loop
   vertex -0.00215955 -0.0139925 0.0290941
   vertex -0.0023149 -0.0139732 0.0290954
   vertex -0.00225701 -0.0141381 0.0291264
  endloop
 endfacet
 facet normal 0.0361719 0.273185 0.961281
  outer loop
   vertex -0.00215955 -0.0139925 0.0290941
   vertex -0.00197019 -0.0137053 0.0290054
   vertex -0.0021942 -0.0136503 0.0289982
  endloop
 endfacet
 facet normal 0.0326705 0.195648 0.98013
  outer loop
   vertex -0.00215955 -0.0139925 0.0290941
   vertex -0.00225701 -0.0141381 0.0291264
   vertex -0.00214116 -0.014167 0.0291284
  endloop
 endfacet
 facet normal 0.0415391 0.273632 0.960937
  outer loop
   vertex -0.00215955 -0.0139925 0.0290941
   vertex -0.0021942 -0.0136503 0.0289982
   vertex -0.0023149 -0.0139732 0.0290954
  endloop
 endfacet
 facet normal 0.0348843 0.186854 0.981768
  outer loop
   vertex -0.00203569 -0.0140338 0.0290993
   vertex -0.00214116 -0.014167 0.0291284
   vertex -0.00206925 -0.0142013 0.0291323
  endloop
 endfacet
 facet normal 0.0486939 0.265428 0.9629
  outer loop
   vertex -0.00203569 -0.0140338 0.0290993
   vertex -0.00197019 -0.0137053 0.0290054
   vertex -0.00215955 -0.0139925 0.0290941
  endloop
 endfacet
 facet normal 0.0220463 0.27061 0.962437
  outer loop
   vertex -0.00203569 -0.0140338 0.0290993
   vertex -0.00183042 -0.01377 0.0290204
   vertex -0.00197019 -0.0137053 0.0290054
  endloop
 endfacet
 facet normal 0.0206596 0.271614 0.962185
  outer loop
   vertex -0.00203569 -0.0140338 0.0290993
   vertex -0.00169641 -0.0138601 0.0290429
   vertex -0.00183042 -0.01377 0.0290204
  endloop
 endfacet
 facet normal 0.0249383 0.263919 0.964222
  outer loop
   vertex -0.00203569 -0.0140338 0.0290993
   vertex -0.00159413 -0.0139537 0.0290659
   vertex -0.00169641 -0.0138601 0.0290429
  endloop
 endfacet
 facet normal 0.0244327 0.194857 0.980527
  outer loop
   vertex -0.00203569 -0.0140338 0.0290993
   vertex -0.00215955 -0.0139925 0.0290941
   vertex -0.00214116 -0.014167 0.0291284
  endloop
 endfacet
 facet normal 0.040435 0.185742 0.981766
  outer loop
   vertex -0.00203569 -0.0140338 0.0290993
   vertex -0.00206925 -0.0142013 0.0291323
   vertex -0.00159413 -0.0139537 0.0290659
  endloop
 endfacet
 facet normal 0.010074 -0.0145089 0.999844
  outer loop
   vertex 0.00871467 -0.011995 0.0291749
   vertex 0.00789138 -0.0125624 0.0291749
   vertex 0.00798836 -0.0126818 0.0291722
  endloop
 endfacet
 facet normal -0.0162949 0.02375 0.999585
  outer loop
   vertex 0.00871467 -0.011995 0.0291749
   vertex 0.00781902 -0.0124399 0.0291709
   vertex 0.00789138 -0.0125624 0.0291749
  endloop
 endfacet
 facet normal -0.0371168 0.0427108 0.998398
  outer loop
   vertex 0.00871467 -0.011995 0.0291749
   vertex 0.00944805 -0.0113147 0.029173
   vertex 0.00934774 -0.0112202 0.0291653
  endloop
 endfacet
 facet normal -0.00395045 0.00696131 0.999968
  outer loop
   vertex 0.00871467 -0.011995 0.0291749
   vertex 0.00955402 -0.0114513 0.0291744
   vertex 0.00944805 -0.0113147 0.029173
  endloop
 endfacet
 facet normal 0.152586 -0.191532 0.969553
  outer loop
   vertex 0.00890509 -0.0126347 0.0291171
   vertex 0.00890844 -0.0129745 0.0290495
   vertex 0.00907106 -0.0129277 0.0290331
  endloop
 endfacet
 facet normal 0.148158 -0.191705 0.970205
  outer loop
   vertex 0.00890509 -0.0126347 0.0291171
   vertex 0.00876241 -0.0129925 0.0290682
   vertex 0.00890844 -0.0129745 0.0290495
  endloop
 endfacet
 facet normal 0.134733 -0.186751 0.973124
  outer loop
   vertex 0.00890509 -0.0126347 0.0291171
   vertex 0.00858224 -0.012985 0.0290946
   vertex 0.00876241 -0.0129925 0.0290682
  endloop
 endfacet
 facet normal 0.152437 -0.200496 0.967763
  outer loop
   vertex 0.00902683 -0.0125843 0.0291113
   vertex 0.00907106 -0.0129277 0.0290331
   vertex 0.00927925 -0.0128185 0.029023
  endloop
 endfacet
 facet normal 0.131298 -0.203767 0.970175
  outer loop
   vertex 0.00902683 -0.0125843 0.0291113
   vertex 0.00890509 -0.0126347 0.0291171
   vertex 0.00907106 -0.0129277 0.0290331
  endloop
 endfacet
 facet normal 0.143102 -0.210307 0.967105
  outer loop
   vertex 0.00910227 -0.0125435 0.029109
   vertex 0.00902683 -0.0125843 0.0291113
   vertex 0.00927925 -0.0128185 0.029023
  endloop
 endfacet
 facet normal 0.150634 -0.205431 0.96701
  outer loop
   vertex 0.00910227 -0.0125435 0.029109
   vertex 0.00927925 -0.0128185 0.029023
   vertex 0.0093017 -0.0128027 0.0290228
  endloop
 endfacet
 facet normal 0.11417 -0.154198 0.981422
  outer loop
   vertex 0.00881995 -0.0124861 0.0291454
   vertex 0.00839257 -0.0129406 0.0291237
   vertex 0.00858224 -0.012985 0.0290946
  endloop
 endfacet
 facet normal 0.0862609 -0.12827 0.987981
  outer loop
   vertex 0.00881995 -0.0124861 0.0291454
   vertex 0.00823398 -0.012871 0.0291465
   vertex 0.00839257 -0.0129406 0.0291237
  endloop
 endfacet
 facet normal 0.061454 -0.0904865 0.994
  outer loop
   vertex 0.00881995 -0.0124861 0.0291454
   vertex 0.00810066 -0.0127836 0.0291628
   vertex 0.00823398 -0.012871 0.0291465
  endloop
 endfacet
 facet normal 0.0429744 -0.0455689 0.998036
  outer loop
   vertex 0.00881995 -0.0124861 0.0291454
   vertex 0.00798836 -0.0126818 0.0291722
   vertex 0.00810066 -0.0127836 0.0291628
  endloop
 endfacet
 facet normal 0.0441284 -0.0505105 0.997748
  outer loop
   vertex 0.00881995 -0.0124861 0.0291454
   vertex 0.00871467 -0.011995 0.0291749
   vertex 0.00798836 -0.0126818 0.0291722
  endloop
 endfacet
 facet normal 0.0828693 -0.13982 0.986703
  outer loop
   vertex 0.00881995 -0.0124861 0.0291454
   vertex 0.00858224 -0.012985 0.0290946
   vertex 0.00890509 -0.0126347 0.0291171
  endloop
 endfacet
 facet normal 0.104078 -0.136262 0.985191
  outer loop
   vertex 0.00889961 -0.0124639 0.0291413
   vertex 0.00890509 -0.0126347 0.0291171
   vertex 0.00902683 -0.0125843 0.0291113
  endloop
 endfacet
 facet normal 0.0631054 -0.0463929 0.996928
  outer loop
   vertex 0.00889961 -0.0124639 0.0291413
   vertex 0.00871467 -0.011995 0.0291749
   vertex 0.00881995 -0.0124861 0.0291454
  endloop
 endfacet
 facet normal 0.0877928 -0.136995 0.986674
  outer loop
   vertex 0.00889961 -0.0124639 0.0291413
   vertex 0.00881995 -0.0124861 0.0291454
   vertex 0.00890509 -0.0126347 0.0291171
  endloop
 endfacet
 facet normal 0.144802 -0.20618 0.967741
  outer loop
   vertex 0.00917113 -0.01248 0.0291111
   vertex 0.0093017 -0.0128027 0.0290228
   vertex 0.00948999 -0.0126243 0.0290327
  endloop
 endfacet
 facet normal 0.155602 -0.201614 0.967026
  outer loop
   vertex 0.00917113 -0.01248 0.0291111
   vertex 0.00910227 -0.0125435 0.029109
   vertex 0.0093017 -0.0128027 0.0290228
  endloop
 endfacet
 facet normal 0.0981568 -0.142452 0.984923
  outer loop
   vertex 0.00900091 -0.0124114 0.0291388
   vertex 0.00889961 -0.0124639 0.0291413
   vertex 0.00902683 -0.0125843 0.0291113
  endloop
 endfacet
 facet normal 0.0511337 -0.0511467 0.997381
  outer loop
   vertex 0.00900091 -0.0124114 0.0291388
   vertex 0.00871467 -0.011995 0.0291749
   vertex 0.00889961 -0.0124639 0.0291413
  endloop
 endfacet
 facet normal 0.106209 -0.141142 0.984276
  outer loop
   vertex 0.00900091 -0.0124114 0.0291388
   vertex 0.00902683 -0.0125843 0.0291113
   vertex 0.00910227 -0.0125435 0.029109
  endloop
 endfacet
 facet normal 0.102066 -0.144146 0.984279
  outer loop
   vertex 0.00901179 -0.0124037 0.0291388
   vertex 0.00910227 -0.0125435 0.029109
   vertex 0.00917113 -0.01248 0.0291111
  endloop
 endfacet
 facet normal 0.103532 -0.143194 0.984265
  outer loop
   vertex 0.00901179 -0.0124037 0.0291388
   vertex 0.00900091 -0.0124114 0.0291388
   vertex 0.00910227 -0.0125435 0.029109
  endloop
 endfacet
 facet normal 0.0427473 -0.0569184 0.997463
  outer loop
   vertex 0.00901179 -0.0124037 0.0291388
   vertex 0.00871467 -0.011995 0.0291749
   vertex 0.00900091 -0.0124114 0.0291388
  endloop
 endfacet
 facet normal 0.132376 -0.17214 0.976138
  outer loop
   vertex 0.00926548 -0.0123714 0.0291172
   vertex 0.00967549 -0.0122682 0.0290798
   vertex 0.00971138 -0.0120648 0.0291108
  endloop
 endfacet
 facet normal 0.13808 -0.196776 0.970677
  outer loop
   vertex 0.00926548 -0.0123714 0.0291172
   vertex 0.00959167 -0.0124728 0.0290503
   vertex 0.00967549 -0.0122682 0.0290798
  endloop
 endfacet
 facet normal 0.135693 -0.203732 0.969578
  outer loop
   vertex 0.00926548 -0.0123714 0.0291172
   vertex 0.00948999 -0.0126243 0.0290327
   vertex 0.00959167 -0.0124728 0.0290503
  endloop
 endfacet
 facet normal 0.153608 -0.187997 0.970083
  outer loop
   vertex 0.00926548 -0.0123714 0.0291172
   vertex 0.00917113 -0.01248 0.0291111
   vertex 0.00948999 -0.0126243 0.0290327
  endloop
 endfacet
 facet normal 0.105302 -0.137601 0.984874
  outer loop
   vertex 0.00910276 -0.0123168 0.0291412
   vertex 0.00901179 -0.0124037 0.0291388
   vertex 0.00917113 -0.01248 0.0291111
  endloop
 endfacet
 facet normal 0.033967 -0.0632964 0.997417
  outer loop
   vertex 0.00910276 -0.0123168 0.0291412
   vertex 0.00871467 -0.011995 0.0291749
   vertex 0.00901179 -0.0124037 0.0291388
  endloop
 endfacet
 facet normal 0.0981538 -0.140652 0.985182
  outer loop
   vertex 0.00910276 -0.0123168 0.0291412
   vertex 0.00917113 -0.01248 0.0291111
   vertex 0.00926548 -0.0123714 0.0291172
  endloop
 endfacet
 facet normal 0.0186166 -0.0458908 0.998773
  outer loop
   vertex 0.00915179 -0.0122423 0.0291456
   vertex 0.00964663 -0.0116331 0.0291643
   vertex 0.00955402 -0.0114513 0.0291744
  endloop
 endfacet
 facet normal 0.070279 -0.0876934 0.993665
  outer loop
   vertex 0.00915179 -0.0122423 0.0291456
   vertex 0.00970258 -0.0118435 0.0291418
   vertex 0.00964663 -0.0116331 0.0291643
  endloop
 endfacet
 facet normal 0.103615 -0.133809 0.985575
  outer loop
   vertex 0.00915179 -0.0122423 0.0291456
   vertex 0.00971138 -0.0120648 0.0291108
   vertex 0.00970258 -0.0118435 0.0291418
  endloop
 endfacet
 facet normal 0.0359839 -0.0546878 0.997855
  outer loop
   vertex 0.00915179 -0.0122423 0.0291456
   vertex 0.00955402 -0.0114513 0.0291744
   vertex 0.00871467 -0.011995 0.0291749
  endloop
 endfacet
 facet normal 0.0248744 -0.0742105 0.996932
  outer loop
   vertex 0.00915179 -0.0122423 0.0291456
   vertex 0.00871467 -0.011995 0.0291749
   vertex 0.00910276 -0.0123168 0.0291412
  endloop
 endfacet
 facet normal 0.101554 -0.127096 0.986678
  outer loop
   vertex 0.00915179 -0.0122423 0.0291456
   vertex 0.00926548 -0.0123714 0.0291172
   vertex 0.00971138 -0.0120648 0.0291108
  endloop
 endfacet
 facet normal 0.103502 -0.125384 0.986695
  outer loop
   vertex 0.00915179 -0.0122423 0.0291456
   vertex 0.00910276 -0.0123168 0.0291412
   vertex 0.00926548 -0.0123714 0.0291172
  endloop
 endfacet
 facet normal -0.0308193 0.0693316 0.997117
  outer loop
   vertex 0.00829434 -0.0117115 0.0291349
   vertex 0.00775706 -0.0122842 0.0291581
   vertex 0.00781902 -0.0124399 0.0291709
  endloop
 endfacet
 facet normal -0.0750605 0.110584 0.991028
  outer loop
   vertex 0.00829434 -0.0117115 0.0291349
   vertex 0.0077186 -0.0120903 0.0291336
   vertex 0.00775706 -0.0122842 0.0291581
  endloop
 endfacet
 facet normal -0.107133 0.159356 0.981391
  outer loop
   vertex 0.00829434 -0.0117115 0.0291349
   vertex 0.00772143 -0.0118713 0.0290983
   vertex 0.0077186 -0.0120903 0.0291336
  endloop
 endfacet
 facet normal -0.11798 0.200243 0.972617
  outer loop
   vertex 0.00829434 -0.0117115 0.0291349
   vertex 0.00778131 -0.0116328 0.0290565
   vertex 0.00772143 -0.0118713 0.0290983
  endloop
 endfacet
 facet normal -0.0427757 0.0770831 0.996107
  outer loop
   vertex 0.00829434 -0.0117115 0.0291349
   vertex 0.00781902 -0.0124399 0.0291709
   vertex 0.00871467 -0.011995 0.0291749
  endloop
 endfacet
 facet normal -0.0375275 0.0848053 0.995691
  outer loop
   vertex 0.00836471 -0.0116274 0.0291304
   vertex 0.00829434 -0.0117115 0.0291349
   vertex 0.00871467 -0.011995 0.0291749
  endloop
 endfacet
 facet normal -0.141873 0.22792 0.963288
  outer loop
   vertex 0.00820388 -0.0115615 0.0291018
   vertex 0.00788861 -0.011429 0.029024
   vertex 0.00778131 -0.0116328 0.0290565
  endloop
 endfacet
 facet normal -0.142891 0.225716 0.963657
  outer loop
   vertex 0.00820388 -0.0115615 0.0291018
   vertex 0.00802615 -0.0112677 0.0290067
   vertex 0.00788861 -0.011429 0.029024
  endloop
 endfacet
 facet normal -0.113801 0.147933 0.982428
  outer loop
   vertex 0.00820388 -0.0115615 0.0291018
   vertex 0.00829434 -0.0117115 0.0291349
   vertex 0.00836471 -0.0116274 0.0291304
  endloop
 endfacet
 facet normal -0.128831 0.138752 0.981912
  outer loop
   vertex 0.00820388 -0.0115615 0.0291018
   vertex 0.00778131 -0.0116328 0.0290565
   vertex 0.00829434 -0.0117115 0.0291349
  endloop
 endfacet
 facet normal -0.0510256 0.072004 0.996098
  outer loop
   vertex 0.00846064 -0.0115555 0.0291301
   vertex 0.00836471 -0.0116274 0.0291304
   vertex 0.00871467 -0.011995 0.0291749
  endloop
 endfacet
 facet normal -0.163303 0.176104 0.970731
  outer loop
   vertex 0.00856425 -0.0115107 0.0291343
   vertex 0.00878459 -0.0109962 0.0290781
   vertex 0.00860982 -0.0109991 0.0290492
  endloop
 endfacet
 facet normal -0.141656 0.167373 0.975664
  outer loop
   vertex 0.00856425 -0.0115107 0.0291343
   vertex 0.00896815 -0.0110265 0.0291099
   vertex 0.00878459 -0.0109962 0.0290781
  endloop
 endfacet
 facet normal -0.114563 0.145128 0.982758
  outer loop
   vertex 0.00856425 -0.0115107 0.0291343
   vertex 0.00910075 -0.0110715 0.029132
   vertex 0.00896815 -0.0110265 0.0291099
  endloop
 endfacet
 facet normal -0.0888724 0.113778 0.989523
  outer loop
   vertex 0.00856425 -0.0115107 0.0291343
   vertex 0.00923249 -0.0111386 0.0291516
   vertex 0.00910075 -0.0110715 0.029132
  endloop
 endfacet
 facet normal -0.0663808 0.0731192 0.995112
  outer loop
   vertex 0.00856425 -0.0115107 0.0291343
   vertex 0.00934774 -0.0112202 0.0291653
   vertex 0.00923249 -0.0111386 0.0291516
  endloop
 endfacet
 facet normal -0.0629582 0.0637957 0.995975
  outer loop
   vertex 0.00856425 -0.0115107 0.0291343
   vertex 0.00871467 -0.011995 0.0291749
   vertex 0.00934774 -0.0112202 0.0291653
  endloop
 endfacet
 facet normal -0.0677961 0.0622745 0.995754
  outer loop
   vertex 0.00856425 -0.0115107 0.0291343
   vertex 0.00846064 -0.0115555 0.0291301
   vertex 0.00871467 -0.011995 0.0291749
  endloop
 endfacet
 facet normal -0.162541 0.213706 0.963281
  outer loop
   vertex 0.00831359 -0.0114589 0.0290976
   vertex 0.00802615 -0.0112677 0.0290067
   vertex 0.00820388 -0.0115615 0.0291018
  endloop
 endfacet
 facet normal -0.114231 0.156323 0.981078
  outer loop
   vertex 0.00831359 -0.0114589 0.0290976
   vertex 0.00836471 -0.0116274 0.0291304
   vertex 0.00846064 -0.0115555 0.0291301
  endloop
 endfacet
 facet normal -0.109575 0.157793 0.981374
  outer loop
   vertex 0.00831359 -0.0114589 0.0290976
   vertex 0.00820388 -0.0115615 0.0291018
   vertex 0.00836471 -0.0116274 0.0291304
  endloop
 endfacet
 facet normal -0.158661 0.219253 0.962681
  outer loop
   vertex 0.00831359 -0.0114589 0.0290976
   vertex 0.00821152 -0.011129 0.0290056
   vertex 0.00802615 -0.0112677 0.0290067
  endloop
 endfacet
 facet normal -0.116243 0.153339 0.981313
  outer loop
   vertex 0.00844494 -0.0113819 0.0291011
   vertex 0.00831359 -0.0114589 0.0290976
   vertex 0.00846064 -0.0115555 0.0291301
  endloop
 endfacet
 facet normal -0.0885863 0.171199 0.981246
  outer loop
   vertex 0.00844494 -0.0113819 0.0291011
   vertex 0.00856425 -0.0115107 0.0291343
   vertex 0.00860982 -0.0109991 0.0290492
  endloop
 endfacet
 facet normal -0.107076 0.154316 0.982202
  outer loop
   vertex 0.00844494 -0.0113819 0.0291011
   vertex 0.00846064 -0.0115555 0.0291301
   vertex 0.00856425 -0.0115107 0.0291343
  endloop
 endfacet
 facet normal -0.155108 0.220439 0.962989
  outer loop
   vertex 0.00844494 -0.0113819 0.0291011
   vertex 0.00821152 -0.011129 0.0290056
   vertex 0.00831359 -0.0114589 0.0290976
  endloop
 endfacet
 facet normal -0.170416 0.206497 0.963492
  outer loop
   vertex 0.00844494 -0.0113819 0.0291011
   vertex 0.00841099 -0.0110407 0.029022
   vertex 0.00821152 -0.011129 0.0290056
  endloop
 endfacet
 facet normal -0.174931 0.20589 0.962813
  outer loop
   vertex 0.00844494 -0.0113819 0.0291011
   vertex 0.00860982 -0.0109991 0.0290492
   vertex 0.00841099 -0.0110407 0.029022
  endloop
 endfacet
 facet normal -0.261337 0.0203261 0.965034
  outer loop
   vertex 0.0140295 -0.00205643 0.0291066
   vertex 0.013872 -0.00168174 0.029056
   vertex 0.0137749 -0.0018219 0.0290327
  endloop
 endfacet
 facet normal -0.250669 0.0251781 0.967745
  outer loop
   vertex 0.0140295 -0.00205643 0.0291066
   vertex 0.0139799 -0.00157014 0.0290811
   vertex 0.013872 -0.00168174 0.029056
  endloop
 endfacet
 facet normal -0.176579 0.0327323 0.983742
  outer loop
   vertex 0.0140295 -0.00205643 0.0291066
   vertex 0.0141576 -0.00217685 0.0291336
   vertex 0.0142065 -0.00206468 0.0291386
  endloop
 endfacet
 facet normal -0.258142 0.0468264 0.964972
  outer loop
   vertex 0.0140295 -0.00205643 0.0291066
   vertex 0.0136823 -0.00203965 0.0290129
   vertex 0.0139843 -0.00220742 0.0291018
  endloop
 endfacet
 facet normal -0.184356 0.0241945 0.982562
  outer loop
   vertex 0.0140295 -0.00205643 0.0291066
   vertex 0.0139843 -0.00220742 0.0291018
   vertex 0.0141576 -0.00217685 0.0291336
  endloop
 endfacet
 facet normal -0.0219947 0.00350376 0.999752
  outer loop
   vertex 0.0146447 -0.00232049 0.029175
   vertex 0.0147986 -0.0013314 0.0291749
   vertex 0.0146096 -0.00131968 0.0291707
  endloop
 endfacet
 facet normal 0.0349371 -0.00535592 0.999375
  outer loop
   vertex 0.0146447 -0.00232049 0.029175
   vertex 0.0149726 -0.00137522 0.0291686
   vertex 0.0147986 -0.0013314 0.0291749
  endloop
 endfacet
 facet normal 0.0154644 -0.00315526 0.999875
  outer loop
   vertex 0.0146447 -0.00232049 0.029175
   vertex 0.0144474 -0.00329993 0.0291749
   vertex 0.0145816 -0.00331729 0.0291728
  endloop
 endfacet
 facet normal -0.0299333 0.00598738 0.999534
  outer loop
   vertex 0.0146447 -0.00232049 0.029175
   vertex 0.0142942 -0.00325651 0.0291701
   vertex 0.0144474 -0.00329993 0.0291749
  endloop
 endfacet
 facet normal 0.250603 -0.0294078 0.967643
  outer loop
   vertex 0.0152403 -0.0026212 0.0291122
   vertex 0.0154892 -0.00285123 0.0290407
   vertex 0.0155668 -0.00270086 0.0290252
  endloop
 endfacet
 facet normal 0.248517 -0.0318081 0.968105
  outer loop
   vertex 0.0152403 -0.0026212 0.0291122
   vertex 0.0154052 -0.00296582 0.0290585
   vertex 0.0154892 -0.00285123 0.0290407
  endloop
 endfacet
 facet normal 0.237927 -0.0372606 0.970568
  outer loop
   vertex 0.0152403 -0.0026212 0.0291122
   vertex 0.0152841 -0.00308614 0.0290836
   vertex 0.0154052 -0.00296582 0.0290585
  endloop
 endfacet
 facet normal 0.255834 -0.0360063 0.96605
  outer loop
   vertex 0.0152871 -0.00249847 0.0291068
   vertex 0.0155668 -0.00270086 0.0290252
   vertex 0.0156302 -0.00247557 0.0290168
  endloop
 endfacet
 facet normal 0.245385 -0.05126 0.96807
  outer loop
   vertex 0.0152871 -0.00249847 0.0291068
   vertex 0.0152403 -0.0026212 0.0291122
   vertex 0.0155668 -0.00270086 0.0290252
  endloop
 endfacet
 facet normal 0.203806 -0.0280572 0.978609
  outer loop
   vertex 0.0150739 -0.00258122 0.0291418
   vertex 0.0151357 -0.00318904 0.0291115
   vertex 0.0152841 -0.00308614 0.0290836
  endloop
 endfacet
 facet normal 0.172466 -0.0315362 0.984511
  outer loop
   vertex 0.0150739 -0.00258122 0.0291418
   vertex 0.014991 -0.00325644 0.0291347
   vertex 0.0151357 -0.00318904 0.0291115
  endloop
 endfacet
 facet normal 0.134687 -0.0269594 0.990521
  outer loop
   vertex 0.0150739 -0.00258122 0.0291418
   vertex 0.0148508 -0.00329721 0.0291527
   vertex 0.014991 -0.00325644 0.0291347
  endloop
 endfacet
 facet normal 0.094814 -0.0144572 0.99539
  outer loop
   vertex 0.0150739 -0.00258122 0.0291418
   vertex 0.0147144 -0.00331655 0.0291654
   vertex 0.0148508 -0.00329721 0.0291527
  endloop
 endfacet
 facet normal 0.0558535 0.00469092 0.998428
  outer loop
   vertex 0.0150739 -0.00258122 0.0291418
   vertex 0.0145816 -0.00331729 0.0291728
   vertex 0.0147144 -0.00331655 0.0291654
  endloop
 endfacet
 facet normal 0.072941 -0.00678462 0.997313
  outer loop
   vertex 0.0150739 -0.00258122 0.0291418
   vertex 0.0146447 -0.00232049 0.029175
   vertex 0.0145816 -0.00331729 0.0291728
  endloop
 endfacet
 facet normal 0.164809 -0.0450625 0.985296
  outer loop
   vertex 0.0150739 -0.00258122 0.0291418
   vertex 0.0152841 -0.00308614 0.0290836
   vertex 0.0152403 -0.0026212 0.0291122
  endloop
 endfacet
 facet normal 0.176765 -0.0243875 0.983951
  outer loop
   vertex 0.0151125 -0.00250816 0.0291379
   vertex 0.0152403 -0.0026212 0.0291122
   vertex 0.0152871 -0.00249847 0.0291068
  endloop
 endfacet
 facet normal 0.0827299 0.00943127 0.996527
  outer loop
   vertex 0.0151125 -0.00250816 0.0291379
   vertex 0.0146447 -0.00232049 0.029175
   vertex 0.0150739 -0.00258122 0.0291418
  endloop
 endfacet
 facet normal 0.16707 -0.0356552 0.9853
  outer loop
   vertex 0.0151125 -0.00250816 0.0291379
   vertex 0.0150739 -0.00258122 0.0291418
   vertex 0.0152403 -0.0026212 0.0291122
  endloop
 endfacet
 facet normal 0.254912 -0.0439125 0.965967
  outer loop
   vertex 0.0153112 -0.00235314 0.0291066
   vertex 0.0156302 -0.00247557 0.0290168
   vertex 0.0156404 -0.00225616 0.0290241
  endloop
 endfacet
 facet normal 0.256083 -0.0407358 0.965796
  outer loop
   vertex 0.0153112 -0.00235314 0.0291066
   vertex 0.0152871 -0.00249847 0.0291068
   vertex 0.0156302 -0.00247557 0.0290168
  endloop
 endfacet
 facet normal 0.177118 -0.0316159 0.983682
  outer loop
   vertex 0.0151437 -0.00239901 0.0291358
   vertex 0.0151125 -0.00250816 0.0291379
   vertex 0.0152871 -0.00249847 0.0291068
  endloop
 endfacet
 facet normal 0.179536 -0.0280328 0.983352
  outer loop
   vertex 0.0151437 -0.00239901 0.0291358
   vertex 0.0152871 -0.00249847 0.0291068
   vertex 0.0153112 -0.00235314 0.0291066
  endloop
 endfacet
 facet normal 0.0777905 -0.00296744 0.996965
  outer loop
   vertex 0.0151437 -0.00239901 0.0291358
   vertex 0.0146447 -0.00232049 0.029175
   vertex 0.0151125 -0.00250816 0.0291379
  endloop
 endfacet
 facet normal 0.23516 -0.0356808 0.971301
  outer loop
   vertex 0.015304 -0.00221952 0.029112
   vertex 0.0155533 -0.00190624 0.0290632
   vertex 0.0154754 -0.00176575 0.0290872
  endloop
 endfacet
 facet normal 0.246148 -0.0449066 0.968191
  outer loop
   vertex 0.015304 -0.00221952 0.029112
   vertex 0.0156104 -0.00206735 0.0290412
   vertex 0.0155533 -0.00190624 0.0290632
  endloop
 endfacet
 facet normal 0.247791 -0.0484906 0.967599
  outer loop
   vertex 0.015304 -0.00221952 0.029112
   vertex 0.0156404 -0.00225616 0.0290241
   vertex 0.0156104 -0.00206735 0.0290412
  endloop
 endfacet
 facet normal 0.250245 -0.0264944 0.96782
  outer loop
   vertex 0.015304 -0.00221952 0.029112
   vertex 0.0153112 -0.00235314 0.0291066
   vertex 0.0156404 -0.00225616 0.0290241
  endloop
 endfacet
 facet normal 0.178625 -0.0245395 0.983611
  outer loop
   vertex 0.0151482 -0.00229257 0.0291376
   vertex 0.0151437 -0.00239901 0.0291358
   vertex 0.0153112 -0.00235314 0.0291066
  endloop
 endfacet
 facet normal 0.0750571 -0.0203418 0.996972
  outer loop
   vertex 0.0151482 -0.00229257 0.0291376
   vertex 0.0146447 -0.00232049 0.029175
   vertex 0.0151437 -0.00239901 0.0291358
  endloop
 endfacet
 facet normal 0.176233 -0.0310982 0.983857
  outer loop
   vertex 0.0151482 -0.00229257 0.0291376
   vertex 0.0153112 -0.00235314 0.0291066
   vertex 0.015304 -0.00221952 0.029112
  endloop
 endfacet
 facet normal 0.0757763 -0.0338815 0.996549
  outer loop
   vertex 0.0151328 -0.00220057 0.029142
   vertex 0.0146447 -0.00232049 0.029175
   vertex 0.0151482 -0.00229257 0.0291376
  endloop
 endfacet
 facet normal 0.0818464 -0.016282 0.996512
  outer loop
   vertex 0.0151328 -0.00220057 0.029142
   vertex 0.0151096 -0.00143492 0.0291564
   vertex 0.0149726 -0.00137522 0.0291686
  endloop
 endfacet
 facet normal 0.129979 -0.0147243 0.991407
  outer loop
   vertex 0.0151328 -0.00220057 0.029142
   vertex 0.0152518 -0.00152624 0.0291364
   vertex 0.0151096 -0.00143492 0.0291564
  endloop
 endfacet
 facet normal 0.172238 -0.0222383 0.984804
  outer loop
   vertex 0.0151328 -0.00220057 0.029142
   vertex 0.0153766 -0.0016401 0.029112
   vertex 0.0152518 -0.00152624 0.0291364
  endloop
 endfacet
 facet normal 0.200699 -0.0349264 0.97903
  outer loop
   vertex 0.0151328 -0.00220057 0.029142
   vertex 0.0154754 -0.00176575 0.0290872
   vertex 0.0153766 -0.0016401 0.029112
  endloop
 endfacet
 facet normal 0.0719758 -0.0182209 0.99724
  outer loop
   vertex 0.0151328 -0.00220057 0.029142
   vertex 0.0149726 -0.00137522 0.0291686
   vertex 0.0146447 -0.00232049 0.029175
  endloop
 endfacet
 facet normal 0.170106 -0.0175337 0.98527
  outer loop
   vertex 0.0151328 -0.00220057 0.029142
   vertex 0.0151482 -0.00229257 0.0291376
   vertex 0.015304 -0.00221952 0.029112
  endloop
 endfacet
 facet normal 0.170863 -0.0106377 0.985237
  outer loop
   vertex 0.0151328 -0.00220057 0.029142
   vertex 0.015304 -0.00221952 0.029112
   vertex 0.0154754 -0.00176575 0.0290872
  endloop
 endfacet
 facet normal -0.0776656 0.0247241 0.996673
  outer loop
   vertex 0.0141451 -0.00240752 0.0291374
   vertex 0.0141338 -0.00318011 0.0291557
   vertex 0.0142942 -0.00325651 0.0291701
  endloop
 endfacet
 facet normal -0.136943 0.0254346 0.990252
  outer loop
   vertex 0.0141451 -0.00240752 0.0291374
   vertex 0.0139819 -0.0030699 0.0291319
   vertex 0.0141338 -0.00318011 0.0291557
  endloop
 endfacet
 facet normal -0.188737 0.0382678 0.981282
  outer loop
   vertex 0.0141451 -0.00240752 0.0291374
   vertex 0.0138404 -0.00291632 0.0290987
   vertex 0.0139819 -0.0030699 0.0291319
  endloop
 endfacet
 facet normal -0.220938 0.0581399 0.973553
  outer loop
   vertex 0.0141451 -0.00240752 0.0291374
   vertex 0.0137253 -0.00271768 0.0290607
   vertex 0.0138404 -0.00291632 0.0290987
  endloop
 endfacet
 facet normal -0.0791957 0.0244511 0.996559
  outer loop
   vertex 0.0141451 -0.00240752 0.0291374
   vertex 0.0142942 -0.00325651 0.0291701
   vertex 0.0146447 -0.00232049 0.029175
  endloop
 endfacet
 facet normal -0.0802784 0.0307795 0.996297
  outer loop
   vertex 0.0141376 -0.0022938 0.0291333
   vertex 0.0141451 -0.00240752 0.0291374
   vertex 0.0146447 -0.00232049 0.029175
  endloop
 endfacet
 facet normal -0.180229 0.0237982 0.983337
  outer loop
   vertex 0.0139759 -0.00235937 0.0291052
   vertex 0.0141451 -0.00240752 0.0291374
   vertex 0.0141376 -0.0022938 0.0291333
  endloop
 endfacet
 facet normal -0.25691 0.0596954 0.96459
  outer loop
   vertex 0.0139759 -0.00235937 0.0291052
   vertex 0.0136564 -0.00248547 0.029028
   vertex 0.0137253 -0.00271768 0.0290607
  endloop
 endfacet
 facet normal -0.255665 0.0562119 0.96513
  outer loop
   vertex 0.0139759 -0.00235937 0.0291052
   vertex 0.0136439 -0.00226556 0.0290118
   vertex 0.0136564 -0.00248547 0.029028
  endloop
 endfacet
 facet normal -0.184877 0.00706789 0.982736
  outer loop
   vertex 0.0139759 -0.00235937 0.0291052
   vertex 0.0137253 -0.00271768 0.0290607
   vertex 0.0141451 -0.00240752 0.0291374
  endloop
 endfacet
 facet normal -0.081311 0.0116669 0.99662
  outer loop
   vertex 0.0141576 -0.00217685 0.0291336
   vertex 0.0141376 -0.0022938 0.0291333
   vertex 0.0146447 -0.00232049 0.029175
  endloop
 endfacet
 facet normal -0.215019 0.0151003 0.976493
  outer loop
   vertex 0.0142065 -0.00206468 0.0291386
   vertex 0.0141131 -0.00147078 0.0291089
   vertex 0.0139799 -0.00157014 0.0290811
  endloop
 endfacet
 facet normal -0.183197 0.0204291 0.982864
  outer loop
   vertex 0.0142065 -0.00206468 0.0291386
   vertex 0.0142484 -0.00140006 0.0291326
   vertex 0.0141131 -0.00147078 0.0291089
  endloop
 endfacet
 facet normal -0.143051 0.0179604 0.989552
  outer loop
   vertex 0.0142065 -0.00206468 0.0291386
   vertex 0.0143849 -0.0013529 0.0291515
   vertex 0.0142484 -0.00140006 0.0291326
  endloop
 endfacet
 facet normal -0.105609 0.00849297 0.994372
  outer loop
   vertex 0.0142065 -0.00206468 0.0291386
   vertex 0.0144837 -0.00133182 0.0291618
   vertex 0.0143849 -0.0013529 0.0291515
  endloop
 endfacet
 facet normal -0.0701442 -0.00502051 0.997524
  outer loop
   vertex 0.0142065 -0.00206468 0.0291386
   vertex 0.0146096 -0.00131968 0.0291707
   vertex 0.0144837 -0.00133182 0.0291618
  endloop
 endfacet
 facet normal -0.0819193 0.00138758 0.996638
  outer loop
   vertex 0.0142065 -0.00206468 0.0291386
   vertex 0.0146447 -0.00232049 0.029175
   vertex 0.0146096 -0.00131968 0.0291707
  endloop
 endfacet
 facet normal -0.0867808 -0.00700099 0.996203
  outer loop
   vertex 0.0142065 -0.00206468 0.0291386
   vertex 0.0141576 -0.00217685 0.0291336
   vertex 0.0146447 -0.00232049 0.029175
  endloop
 endfacet
 facet normal -0.185224 0.0294337 0.982255
  outer loop
   vertex 0.0139843 -0.00220742 0.0291018
   vertex 0.0141376 -0.0022938 0.0291333
   vertex 0.0141576 -0.00217685 0.0291336
  endloop
 endfacet
 facet normal -0.261697 0.0400801 0.964317
  outer loop
   vertex 0.0139843 -0.00220742 0.0291018
   vertex 0.0136823 -0.00203965 0.0290129
   vertex 0.0136439 -0.00226556 0.0290118
  endloop
 endfacet
 facet normal -0.261137 0.0363368 0.964618
  outer loop
   vertex 0.0139843 -0.00220742 0.0291018
   vertex 0.0136439 -0.00226556 0.0290118
   vertex 0.0139759 -0.00235937 0.0291052
  endloop
 endfacet
 facet normal -0.183579 0.0324328 0.98247
  outer loop
   vertex 0.0139843 -0.00220742 0.0291018
   vertex 0.0139759 -0.00235937 0.0291052
   vertex 0.0141376 -0.0022938 0.0291333
  endloop
 endfacet
 facet normal -0.176536 0.0335772 0.983721
  outer loop
   vertex 0.0140295 -0.00205643 0.0291066
   vertex 0.0142065 -0.00206468 0.0291386
   vertex 0.0139799 -0.00157014 0.0290811
  endloop
 endfacet
 facet normal -0.259457 0.0225116 0.965492
  outer loop
   vertex 0.0140295 -0.00205643 0.0291066
   vertex 0.0137749 -0.0018219 0.0290327
   vertex 0.0136823 -0.00203965 0.0290129
  endloop
 endfacet
 facet normal -0.0545074 -0.0650205 0.996394
  outer loop
   vertex 0.011511 0.00856222 0.0291387
   vertex 0.0115364 0.00849679 0.0291358
   vertex 0.0119938 0.00871437 0.029175
  endloop
 endfacet
 facet normal -0.0519403 -0.0730656 0.995974
  outer loop
   vertex 0.0114942 0.00863595 0.0291432
   vertex 0.011511 0.00856222 0.0291387
   vertex 0.0119938 0.00871437 0.029175
  endloop
 endfacet
 facet normal -0.159782 -0.14954 0.97576
  outer loop
   vertex 0.0114942 0.00863595 0.0291432
   vertex 0.0110066 0.00887407 0.0290998
   vertex 0.0109939 0.00869184 0.0290698
  endloop
 endfacet
 facet normal -0.145371 -0.118856 0.982212
  outer loop
   vertex 0.0114942 0.00863595 0.0291432
   vertex 0.0110655 0.00908615 0.0291342
   vertex 0.0110066 0.00887407 0.0290998
  endloop
 endfacet
 facet normal -0.111956 -0.0868887 0.989907
  outer loop
   vertex 0.0114942 0.00863595 0.0291432
   vertex 0.0111266 0.00921216 0.0291522
   vertex 0.0110655 0.00908615 0.0291342
  endloop
 endfacet
 facet normal -0.0694985 -0.0598999 0.995782
  outer loop
   vertex 0.0114942 0.00863595 0.0291432
   vertex 0.0112306 0.0093602 0.0291684
   vertex 0.0111266 0.00921216 0.0291522
  endloop
 endfacet
 facet normal -0.00850475 -0.0378217 0.999248
  outer loop
   vertex 0.0114942 0.00863595 0.0291432
   vertex 0.0113785 0.00950234 0.029175
   vertex 0.0112306 0.0093602 0.0291684
  endloop
 endfacet
 facet normal -0.056568 -0.0441692 0.997421
  outer loop
   vertex 0.0114942 0.00863595 0.0291432
   vertex 0.0119938 0.00871437 0.029175
   vertex 0.0113785 0.00950234 0.029175
  endloop
 endfacet
 facet normal -0.149863 -0.107008 0.982899
  outer loop
   vertex 0.0114256 0.00836142 0.0291041
   vertex 0.0115955 0.00840119 0.0291344
   vertex 0.0115364 0.00849679 0.0291358
  endloop
 endfacet
 facet normal -0.212025 -0.155084 0.964881
  outer loop
   vertex 0.0114256 0.00836142 0.0291041
   vertex 0.0112069 0.00809668 0.0290135
   vertex 0.0115075 0.00825322 0.0291048
  endloop
 endfacet
 facet normal -0.208191 -0.158354 0.965184
  outer loop
   vertex 0.0114256 0.00836142 0.0291041
   vertex 0.0110922 0.00828103 0.0290191
   vertex 0.0112069 0.00809668 0.0290135
  endloop
 endfacet
 facet normal -0.149679 -0.107753 0.982846
  outer loop
   vertex 0.0114256 0.00836142 0.0291041
   vertex 0.0115075 0.00825322 0.0291048
   vertex 0.0115955 0.00840119 0.0291344
  endloop
 endfacet
 facet normal -0.211408 -0.146289 0.966388
  outer loop
   vertex 0.0113696 0.0084674 0.029108
   vertex 0.0110922 0.00828103 0.0290191
   vertex 0.0114256 0.00836142 0.0291041
  endloop
 endfacet
 facet normal -0.146558 -0.100215 0.984113
  outer loop
   vertex 0.0113696 0.0084674 0.029108
   vertex 0.0115364 0.00849679 0.0291358
   vertex 0.011511 0.00856222 0.0291387
  endloop
 endfacet
 facet normal -0.150193 -0.0947909 0.984102
  outer loop
   vertex 0.0113696 0.0084674 0.029108
   vertex 0.011511 0.00856222 0.0291387
   vertex 0.0114942 0.00863595 0.0291432
  endloop
 endfacet
 facet normal -0.197813 -0.166349 0.966022
  outer loop
   vertex 0.0113696 0.0084674 0.029108
   vertex 0.0110419 0.00840705 0.0290305
   vertex 0.0110922 0.00828103 0.0290191
  endloop
 endfacet
 facet normal -0.197141 -0.169477 0.965615
  outer loop
   vertex 0.0113696 0.0084674 0.029108
   vertex 0.0110073 0.00854936 0.0290484
   vertex 0.0110419 0.00840705 0.0290305
  endloop
 endfacet
 facet normal -0.196125 -0.164167 0.966739
  outer loop
   vertex 0.0113696 0.0084674 0.029108
   vertex 0.0109939 0.00869184 0.0290698
   vertex 0.0110073 0.00854936 0.0290484
  endloop
 endfacet
 facet normal -0.154474 -0.0915531 0.983746
  outer loop
   vertex 0.0113696 0.0084674 0.029108
   vertex 0.0114942 0.00863595 0.0291432
   vertex 0.0109939 0.00869184 0.0290698
  endloop
 endfacet
 facet normal -0.144411 -0.111545 0.983211
  outer loop
   vertex 0.0113696 0.0084674 0.029108
   vertex 0.0114256 0.00836142 0.0291041
   vertex 0.0115364 0.00849679 0.0291358
  endloop
 endfacet
 facet normal 0.0280688 0.0219165 0.999366
  outer loop
   vertex 0.0119938 0.00871437 0.029175
   vertex 0.0115757 0.00962236 0.0291668
   vertex 0.0113785 0.00950234 0.029175
  endloop
 endfacet
 facet normal 0.201112 0.158061 0.966732
  outer loop
   vertex 0.0126282 0.00892718 0.0291099
   vertex 0.0129663 0.00894622 0.0290364
   vertex 0.012916 0.00910021 0.0290217
  endloop
 endfacet
 facet normal 0.201335 0.155516 0.967098
  outer loop
   vertex 0.0126282 0.00892718 0.0291099
   vertex 0.012989 0.00881022 0.0290536
   vertex 0.0129663 0.00894622 0.0290364
  endloop
 endfacet
 facet normal 0.198337 0.145197 0.969319
  outer loop
   vertex 0.0126282 0.00892718 0.0291099
   vertex 0.0129914 0.00864583 0.0290777
   vertex 0.012989 0.00881022 0.0290536
  endloop
 endfacet
 facet normal 0.209109 0.157024 0.965203
  outer loop
   vertex 0.0125752 0.00904382 0.0291047
   vertex 0.012916 0.00910021 0.0290217
   vertex 0.0128027 0.0093017 0.0290135
  endloop
 endfacet
 facet normal 0.212522 0.139304 0.967176
  outer loop
   vertex 0.0125752 0.00904382 0.0291047
   vertex 0.0126282 0.00892718 0.0291099
   vertex 0.012916 0.00910021 0.0290217
  endloop
 endfacet
 facet normal 0.163565 0.129681 0.977972
  outer loop
   vertex 0.0124925 0.00877161 0.0291445
   vertex 0.0129637 0.00847103 0.0291055
   vertex 0.0129914 0.00864583 0.0290777
  endloop
 endfacet
 facet normal 0.148703 0.105699 0.983217
  outer loop
   vertex 0.0124925 0.00877161 0.0291445
   vertex 0.0129119 0.00831794 0.0291298
   vertex 0.0129637 0.00847103 0.0291055
  endloop
 endfacet
 facet normal 0.122296 0.08109 0.989175
  outer loop
   vertex 0.0124925 0.00877161 0.0291445
   vertex 0.0128439 0.00818753 0.0291489
   vertex 0.0129119 0.00831794 0.0291298
  endloop
 endfacet
 facet normal 0.0875439 0.0602177 0.994339
  outer loop
   vertex 0.0124925 0.00877161 0.0291445
   vertex 0.0127632 0.00807532 0.0291628
   vertex 0.0128439 0.00818753 0.0291489
  endloop
 endfacet
 facet normal 0.0474776 0.0447305 0.99787
  outer loop
   vertex 0.0124925 0.00877161 0.0291445
   vertex 0.0126718 0.00797896 0.0291715
   vertex 0.0127632 0.00807532 0.0291628
  endloop
 endfacet
 facet normal 0.00455386 0.0350701 0.999374
  outer loop
   vertex 0.0124925 0.00877161 0.0291445
   vertex 0.0125659 0.0078938 0.029175
   vertex 0.0126718 0.00797896 0.0291715
  endloop
 endfacet
 facet normal 0.0564981 0.0393535 0.997627
  outer loop
   vertex 0.0124925 0.00877161 0.0291445
   vertex 0.0119938 0.00871437 0.029175
   vertex 0.0125659 0.0078938 0.029175
  endloop
 endfacet
 facet normal 0.153235 0.0852391 0.984507
  outer loop
   vertex 0.0124925 0.00877161 0.0291445
   vertex 0.0129914 0.00864583 0.0290777
   vertex 0.0126282 0.00892718 0.0291099
  endloop
 endfacet
 facet normal 0.0525626 0.0727502 0.995964
  outer loop
   vertex 0.0124819 0.00883854 0.0291402
   vertex 0.0119938 0.00871437 0.029175
   vertex 0.0124925 0.00877161 0.0291445
  endloop
 endfacet
 facet normal 0.150701 0.0874926 0.9847
  outer loop
   vertex 0.0124819 0.00883854 0.0291402
   vertex 0.0124925 0.00877161 0.0291445
   vertex 0.0126282 0.00892718 0.0291099
  endloop
 endfacet
 facet normal 0.214111 0.152761 0.96479
  outer loop
   vertex 0.0125107 0.00914272 0.0291035
   vertex 0.0128027 0.0093017 0.0290135
   vertex 0.0127185 0.00940288 0.0290162
  endloop
 endfacet
 facet normal 0.214424 0.152197 0.96481
  outer loop
   vertex 0.0125107 0.00914272 0.0291035
   vertex 0.0125752 0.00904382 0.0291047
   vertex 0.0128027 0.0093017 0.0290135
  endloop
 endfacet
 facet normal 0.146159 0.0949831 0.984691
  outer loop
   vertex 0.0124581 0.00891389 0.0291364
   vertex 0.0124819 0.00883854 0.0291402
   vertex 0.0126282 0.00892718 0.0291099
  endloop
 endfacet
 facet normal 0.0541901 0.0664514 0.996317
  outer loop
   vertex 0.0124581 0.00891389 0.0291364
   vertex 0.0119938 0.00871437 0.029175
   vertex 0.0124819 0.00883854 0.0291402
  endloop
 endfacet
 facet normal 0.144839 0.109308 0.983399
  outer loop
   vertex 0.0124581 0.00891389 0.0291364
   vertex 0.0126282 0.00892718 0.0291099
   vertex 0.0125752 0.00904382 0.0291047
  endloop
 endfacet
 facet normal 0.214276 0.147047 0.965641
  outer loop
   vertex 0.0124441 0.0092104 0.0291064
   vertex 0.0127185 0.00940288 0.0290162
   vertex 0.0125997 0.00950937 0.0290263
  endloop
 endfacet
 facet normal 0.204895 0.160377 0.965555
  outer loop
   vertex 0.0124441 0.0092104 0.0291064
   vertex 0.0125107 0.00914272 0.0291035
   vertex 0.0127185 0.00940288 0.0290162
  endloop
 endfacet
 facet normal 0.0594499 0.0542972 0.996753
  outer loop
   vertex 0.0124035 0.00901185 0.0291344
   vertex 0.0119938 0.00871437 0.029175
   vertex 0.0124581 0.00891389 0.0291364
  endloop
 endfacet
 facet normal 0.149039 0.109765 0.98272
  outer loop
   vertex 0.0124035 0.00901185 0.0291344
   vertex 0.0125752 0.00904382 0.0291047
   vertex 0.0125107 0.00914272 0.0291035
  endloop
 endfacet
 facet normal 0.150088 0.104509 0.983134
  outer loop
   vertex 0.0124035 0.00901185 0.0291344
   vertex 0.0124581 0.00891389 0.0291364
   vertex 0.0125752 0.00904382 0.0291047
  endloop
 endfacet
 facet normal 0.150623 0.10623 0.982867
  outer loop
   vertex 0.0123625 0.00906079 0.029135
   vertex 0.0125107 0.00914272 0.0291035
   vertex 0.0124441 0.0092104 0.0291064
  endloop
 endfacet
 facet normal 0.0677832 0.0428246 0.996781
  outer loop
   vertex 0.0123625 0.00906079 0.029135
   vertex 0.0119938 0.00871437 0.029175
   vertex 0.0124035 0.00901185 0.0291344
  endloop
 endfacet
 facet normal 0.148309 0.110373 0.982763
  outer loop
   vertex 0.0123625 0.00906079 0.029135
   vertex 0.0124035 0.00901185 0.0291344
   vertex 0.0125107 0.00914272 0.0291035
  endloop
 endfacet
 facet normal 0.178304 0.137691 0.974294
  outer loop
   vertex 0.0123691 0.0092685 0.0291116
   vertex 0.0122774 0.00967283 0.0290713
   vertex 0.0120459 0.00971255 0.029108
  endloop
 endfacet
 facet normal 0.20497 0.143138 0.968245
  outer loop
   vertex 0.0123691 0.0092685 0.0291116
   vertex 0.0124909 0.00958156 0.0290396
   vertex 0.0122774 0.00967283 0.0290713
  endloop
 endfacet
 facet normal 0.211143 0.140521 0.967302
  outer loop
   vertex 0.0123691 0.0092685 0.0291116
   vertex 0.0125997 0.00950937 0.0290263
   vertex 0.0124909 0.00958156 0.0290396
  endloop
 endfacet
 facet normal 0.191674 0.159549 0.968403
  outer loop
   vertex 0.0123691 0.0092685 0.0291116
   vertex 0.0124441 0.0092104 0.0291064
   vertex 0.0125997 0.00950937 0.0290263
  endloop
 endfacet
 facet normal 0.148209 0.102066 0.983675
  outer loop
   vertex 0.0123044 0.00911215 0.0291376
   vertex 0.0124441 0.0092104 0.0291064
   vertex 0.0123691 0.0092685 0.0291116
  endloop
 endfacet
 facet normal 0.0750515 0.0350627 0.996563
  outer loop
   vertex 0.0123044 0.00911215 0.0291376
   vertex 0.0119938 0.00871437 0.029175
   vertex 0.0123625 0.00906079 0.029135
  endloop
 endfacet
 facet normal 0.141775 0.1112 0.983633
  outer loop
   vertex 0.0123044 0.00911215 0.0291376
   vertex 0.0123625 0.00906079 0.029135
   vertex 0.0124441 0.0092104 0.0291064
  endloop
 endfacet
 facet normal 0.081731 0.0298132 0.996208
  outer loop
   vertex 0.0122509 0.00914694 0.029141
   vertex 0.0119938 0.00871437 0.029175
   vertex 0.0123044 0.00911215 0.0291376
  endloop
 endfacet
 facet normal 0.0835269 0.0645202 0.994415
  outer loop
   vertex 0.0122509 0.00914694 0.029141
   vertex 0.0118038 0.00969572 0.0291429
   vertex 0.0115757 0.00962236 0.0291668
  endloop
 endfacet
 facet normal 0.134527 0.106104 0.985213
  outer loop
   vertex 0.0122509 0.00914694 0.029141
   vertex 0.0120459 0.00971255 0.029108
   vertex 0.0118038 0.00969572 0.0291429
  endloop
 endfacet
 facet normal 0.135035 0.106283 0.985124
  outer loop
   vertex 0.0122509 0.00914694 0.029141
   vertex 0.0123691 0.0092685 0.0291116
   vertex 0.0120459 0.00971255 0.029108
  endloop
 endfacet
 facet normal 0.0658737 0.0393044 0.997054
  outer loop
   vertex 0.0122509 0.00914694 0.029141
   vertex 0.0115757 0.00962236 0.0291668
   vertex 0.0119938 0.00871437 0.029175
  endloop
 endfacet
 facet normal 0.132409 0.108855 0.9852
  outer loop
   vertex 0.0122509 0.00914694 0.029141
   vertex 0.0123044 0.00911215 0.0291376
   vertex 0.0123691 0.0092685 0.0291116
  endloop
 endfacet
 facet normal -0.0316049 0.018779 0.999324
  outer loop
   vertex 0.011751 0.00827047 0.0291421
   vertex 0.0124466 0.00782236 0.0291725
   vertex 0.0125659 0.0078938 0.029175
  endloop
 endfacet
 facet normal -0.0582017 -0.0225943 0.998049
  outer loop
   vertex 0.011751 0.00827047 0.0291421
   vertex 0.0123043 0.0077634 0.0291629
   vertex 0.0124466 0.00782236 0.0291725
  endloop
 endfacet
 facet normal -0.0956536 -0.0636565 0.993377
  outer loop
   vertex 0.011751 0.00827047 0.0291421
   vertex 0.0121287 0.00772307 0.0291434
   vertex 0.0123043 0.0077634 0.0291629
  endloop
 endfacet
 facet normal -0.140598 -0.0946845 0.985529
  outer loop
   vertex 0.011751 0.00827047 0.0291421
   vertex 0.011933 0.00771576 0.0291148
   vertex 0.0121287 0.00772307 0.0291434
  endloop
 endfacet
 facet normal -0.18205 -0.107881 0.977353
  outer loop
   vertex 0.011751 0.00827047 0.0291421
   vertex 0.0117099 0.00775502 0.0290776
   vertex 0.011933 0.00771576 0.0291148
  endloop
 endfacet
 facet normal -0.203631 -0.105659 0.97333
  outer loop
   vertex 0.011751 0.00827047 0.0291421
   vertex 0.0115054 0.00784122 0.0290441
   vertex 0.0117099 0.00775502 0.0290776
  endloop
 endfacet
 facet normal -0.059348 -0.0414099 0.997378
  outer loop
   vertex 0.011751 0.00827047 0.0291421
   vertex 0.0125659 0.0078938 0.029175
   vertex 0.0119938 0.00871437 0.029175
  endloop
 endfacet
 facet normal -0.0824319 -0.0286941 0.996184
  outer loop
   vertex 0.0116609 0.00833263 0.0291365
   vertex 0.011751 0.00827047 0.0291421
   vertex 0.0119938 0.00871437 0.029175
  endloop
 endfacet
 facet normal -0.071647 -0.0381505 0.9967
  outer loop
   vertex 0.0115955 0.00840119 0.0291344
   vertex 0.0116609 0.00833263 0.0291365
   vertex 0.0119938 0.00871437 0.029175
  endloop
 endfacet
 facet normal -0.146309 -0.109812 0.983125
  outer loop
   vertex 0.0115075 0.00825322 0.0291048
   vertex 0.0116609 0.00833263 0.0291365
   vertex 0.0115955 0.00840119 0.0291344
  endloop
 endfacet
 facet normal -0.224627 -0.140703 0.964233
  outer loop
   vertex 0.0115075 0.00825322 0.0291048
   vertex 0.0113326 0.00796358 0.0290217
   vertex 0.0115054 0.00784122 0.0290441
  endloop
 endfacet
 facet normal -0.217107 -0.145532 0.965238
  outer loop
   vertex 0.0115075 0.00825322 0.0291048
   vertex 0.0112069 0.00809668 0.0290135
   vertex 0.0113326 0.00796358 0.0290217
  endloop
 endfacet
 facet normal -0.14254 -0.116985 0.982851
  outer loop
   vertex 0.0115075 0.00825322 0.0291048
   vertex 0.011751 0.00827047 0.0291421
   vertex 0.0116609 0.00833263 0.0291365
  endloop
 endfacet
 facet normal -0.140182 -0.143407 0.979685
  outer loop
   vertex 0.0115075 0.00825322 0.0291048
   vertex 0.0115054 0.00784122 0.0290441
   vertex 0.011751 0.00827047 0.0291421
  endloop
 endfacet
 facet normal -0.0606873 -0.0521016 0.996796
  outer loop
   vertex 0.0115364 0.00849679 0.0291358
   vertex 0.0115955 0.00840119 0.0291344
   vertex 0.0119938 0.00871437 0.029175
  endloop
 endfacet
endsolid solid
